ply
format ascii 1.0
comment Created by Blender 2.82 (sub 7) - www.blender.org, source file: 'board.blend'
element vertex 24
property float x
property float y
property float z
property float nx
property float ny
property float nz
property float s
property float t
property uchar red
property uchar green
property uchar blue
property uchar alpha
element face 7
property list uchar uint vertex_indices
end_header
-0.411378 -0.412500 -0.002028 -0.577349 -0.577349 -0.577349 1.000000 0.000000 85 85 85 255
-0.411378 0.412500 -0.002028 -0.577349 0.577349 -0.577349 1.000000 1.000000 13 13 13 255
0.413622 0.412500 -0.002028 0.577349 0.577349 -0.577349 0.000000 1.000000 10 10 10 255
0.413622 -0.412500 -0.002028 0.577349 -0.577349 -0.577349 0.000000 0.000000 17 17 17 255
-0.411378 -0.412500 0.001972 -0.577349 -0.577349 0.577349 0.000000 0.000000 80 80 80 255
0.413622 -0.412500 0.001972 0.577349 -0.577349 0.577349 1.000000 0.000000 12 12 12 255
0.413622 0.412500 0.001972 0.577349 0.577349 0.577349 1.000000 1.000000 10 10 10 255
-0.411378 0.412500 0.001972 -0.577349 0.577349 0.577349 0.000000 1.000000 13 13 13 255
-0.411378 -0.412500 -0.002028 -0.577349 -0.577349 -0.577349 0.000000 0.000000 85 85 85 255
0.413622 -0.412500 -0.002028 0.577349 -0.577349 -0.577349 1.000000 0.000000 17 17 17 255
0.413622 -0.412500 0.001972 0.577349 -0.577349 0.577349 1.000000 1.000000 12 12 12 255
-0.411378 -0.412500 0.001972 -0.577349 -0.577349 0.577349 0.000000 1.000000 80 80 80 255
0.413622 0.412500 -0.002028 0.577349 0.577349 -0.577349 1.000000 0.000000 10 10 10 255
0.413622 -0.412500 0.001972 0.577349 -0.577349 0.577349 0.000000 1.000000 12 12 12 255
0.413622 0.412500 -0.002028 0.577349 0.577349 -0.577349 0.000000 0.000000 10 10 10 255
-0.411378 0.412500 -0.002028 -0.577349 0.577349 -0.577349 1.000000 0.000000 13 13 13 255
-0.411378 0.412500 0.001972 -0.577349 0.577349 0.577349 1.000000 1.000000 13 13 13 255
0.413622 0.412500 0.001972 0.577349 0.577349 0.577349 0.000000 1.000000 10 10 10 255
-0.411378 0.412500 -0.002028 -0.577349 0.577349 -0.577349 0.000000 0.000000 13 13 13 255
-0.411378 -0.412500 0.001972 -0.577349 -0.577349 0.577349 1.000000 1.000000 80 80 80 255
-0.012033 -0.021654 0.000975 0.000000 0.000000 1.000000 0.000000 0.000000 231 231 231 255
0.031274 -0.021654 0.000975 0.000000 0.000000 1.000000 1.000000 0.000000 202 202 202 255
0.031274 0.021654 0.000975 0.000000 0.000000 1.000000 1.000000 1.000000 23 23 23 255
-0.012033 0.021654 0.000975 0.000000 0.000000 1.000000 0.000000 1.000000 191 191 191 255
4 0 1 2 3
4 4 5 6 7
4 8 9 10 11
4 3 12 6 13
4 14 15 16 17
4 18 0 19 7
4 20 21 22 23
