ply
format ascii 1.0
comment Created by Blender 2.82 (sub 7) - www.blender.org, source file: ''
element vertex 144
property float x
property float y
property float z
property float nx
property float ny
property float nz
property float s
property float t
property uchar red
property uchar green
property uchar blue
property uchar alpha
element face 284
property list uchar uint vertex_indices
end_header
0.006351 0.002260 0.020560 0.435621 0.153661 0.886898 0.340954 0.936975 131 131 131 255
0.005179 0.004290 0.020578 0.351970 0.288064 0.890561 0.201091 0.856225 131 131 131 255
0.003383 0.005797 0.020591 0.231056 0.394452 0.889370 0.097282 0.732509 131 131 131 255
0.001180 0.006598 0.020599 0.080203 0.446425 0.891201 0.042046 0.580750 131 131 131 255
-0.001164 0.006598 0.020599 -0.080111 0.446760 0.891018 0.042046 0.419250 131 131 131 255
-0.003366 0.005797 0.020591 -0.230842 0.392468 0.890316 0.097282 0.267490 132 132 132 255
-0.005162 0.004290 0.020578 -0.353710 0.291299 0.888821 0.201091 0.143775 132 132 132 255
-0.006334 0.002260 0.020560 -0.433699 0.151494 0.888211 0.340954 0.063025 131 131 131 255
-0.006741 -0.000048 0.020545 -0.465957 -0.000061 0.884793 0.500000 0.034981 131 131 131 255
-0.006334 -0.002357 0.020560 -0.433790 -0.151524 0.888150 0.659046 0.063025 131 131 131 255
-0.005162 -0.004387 0.020578 -0.353801 -0.291330 0.888760 0.798908 0.143775 131 131 131 255
-0.003366 -0.005893 0.020591 -0.230903 -0.392499 0.890286 0.902718 0.267490 131 131 131 255
-0.001164 -0.006695 0.020599 -0.080142 -0.446791 0.891018 0.957954 0.419250 131 131 131 255
0.001180 -0.006695 0.020599 0.080142 -0.446394 0.891201 0.957954 0.580750 131 131 131 255
0.003383 -0.005893 0.020591 0.230995 -0.394421 0.889401 0.902718 0.732509 131 131 131 255
0.005179 -0.004387 0.020578 0.351909 -0.288034 0.890591 0.798909 0.856225 131 131 131 255
0.006351 -0.002357 0.020560 0.435530 -0.153630 0.886929 0.659046 0.936975 131 131 131 255
0.006758 -0.000048 0.020545 0.472762 0.000061 0.881161 0.500000 0.965019 131 131 131 255
0.006828 0.002434 0.005422 0.888699 0.321299 0.327006 0.328990 0.969846 131 131 131 255
0.006828 0.002434 0.019960 0.887020 0.320658 0.332163 0.328990 0.969846 131 131 131 255
0.007265 -0.000048 0.019945 0.943571 0.000031 0.331126 0.500000 1.000000 131 131 131 255
0.007265 -0.000048 0.005409 0.944884 0.000000 0.327342 0.500000 1.000000 131 131 131 255
0.005568 0.004616 0.005437 0.725028 0.605914 0.327342 0.178606 0.883022 131 131 131 255
0.005568 0.004616 0.019978 0.723685 0.604724 0.332499 0.178606 0.883022 131 131 131 255
0.003637 0.006236 0.005448 0.473434 0.817530 0.327799 0.066987 0.750000 131 131 131 255
0.003637 0.006236 0.019991 0.472671 0.816095 0.332438 0.066987 0.750000 131 131 131 255
0.001268 0.007098 0.005455 0.164495 0.930235 0.327982 0.007596 0.586824 131 131 131 255
0.001268 0.007098 0.019999 0.164251 0.928648 0.332560 0.007596 0.586824 131 131 131 255
-0.001252 0.007098 0.019999 -0.164220 0.928648 0.332560 0.007596 0.413176 131 131 131 255
-0.001252 0.007098 0.005455 -0.164525 0.930235 0.327952 0.007596 0.413176 131 131 131 255
-0.003620 0.006236 0.019991 -0.472671 0.816126 0.332408 0.066987 0.250000 136 136 136 255
-0.003620 0.006236 0.005448 -0.473434 0.817530 0.327799 0.066987 0.250000 131 131 131 255
-0.005551 0.004616 0.019978 -0.723685 0.604755 0.332438 0.178606 0.116978 131 131 131 255
-0.005551 0.004616 0.005437 -0.725028 0.605914 0.327311 0.178606 0.116978 131 131 131 255
-0.006811 0.002434 0.019960 -0.887051 0.320658 0.332072 0.328990 0.030154 131 131 131 255
-0.006811 0.002434 0.005422 -0.888699 0.321329 0.326975 0.328990 0.030154 131 131 131 255
-0.007249 -0.000048 0.019945 -0.943571 -0.000031 0.331126 0.500000 0.000000 131 131 131 255
-0.007249 -0.000048 0.005409 -0.944884 0.000000 0.327342 0.500000 0.000000 131 131 131 255
-0.006811 -0.002530 0.005422 -0.888699 -0.321299 0.327006 0.671010 0.030154 131 131 131 255
-0.006811 -0.002530 0.019960 -0.887020 -0.320658 0.332163 0.671010 0.030154 131 131 131 255
-0.005551 -0.004713 0.005437 -0.725028 -0.605914 0.327342 0.821394 0.116978 131 131 131 255
-0.005551 -0.004713 0.019978 -0.723685 -0.604724 0.332499 0.821394 0.116978 131 131 131 255
-0.003620 -0.006333 0.005448 -0.473434 -0.817530 0.327799 0.933013 0.250000 131 131 131 255
-0.003620 -0.006333 0.019991 -0.472671 -0.816095 0.332438 0.933013 0.250000 131 131 131 255
-0.001252 -0.007195 0.005455 -0.164495 -0.930235 0.327982 0.992404 0.413176 131 131 131 255
-0.001252 -0.007195 0.019999 -0.164251 -0.928648 0.332560 0.992404 0.413176 131 131 131 255
0.001268 -0.007195 0.019999 0.164220 -0.928648 0.332560 0.992404 0.586824 131 131 131 255
0.001268 -0.007195 0.005455 0.164525 -0.930235 0.327952 0.992404 0.586824 131 131 131 255
0.003637 -0.006333 0.019991 0.472671 -0.816126 0.332408 0.933013 0.750000 131 131 131 255
0.003637 -0.006333 0.005448 0.473434 -0.817530 0.327799 0.933013 0.750000 131 131 131 255
0.005568 -0.004713 0.019978 0.723685 -0.604755 0.332438 0.821394 0.883022 132 132 132 255
0.005568 -0.004713 0.005437 0.725028 -0.605914 0.327311 0.821394 0.883022 131 131 131 255
0.006828 -0.002530 0.019960 0.887051 -0.320658 0.332072 0.671010 0.969846 131 131 131 255
0.006828 -0.002530 0.005422 0.888699 -0.321329 0.326975 0.671010 0.969846 131 131 131 255
0.007722 -0.000048 0.004798 0.952483 0.000000 0.304514 0.500000 1.000000 131 131 131 255
0.007722 -0.000048 0.003115 0.661946 -0.000519 0.749504 0.500000 1.000000 131 131 131 255
0.007256 0.002590 0.003133 0.624805 0.221290 0.748711 0.328990 0.969846 131 131 131 255
0.007256 0.002590 0.004812 0.895230 0.324076 0.305765 0.328990 0.969846 131 131 131 255
0.005917 0.004910 0.003156 0.511429 0.422346 0.748344 0.178606 0.883022 131 131 131 255
0.005917 0.004910 0.004830 0.730125 0.610645 0.306589 0.178606 0.883022 131 131 131 255
0.003865 0.006632 0.003171 0.334635 0.572710 0.748314 0.066987 0.750000 131 131 131 255
0.003865 0.006632 0.004842 0.476730 0.823695 0.306955 0.066987 0.750000 131 131 131 255
0.001348 0.007548 0.003181 0.116428 0.653279 0.748100 0.007596 0.586824 131 131 131 255
0.001348 0.007548 0.004850 0.165624 0.937071 0.307321 0.007596 0.586824 131 131 131 255
-0.001331 0.007548 0.003181 -0.116733 0.653371 0.747948 0.007596 0.413176 131 131 131 255
-0.001331 0.007548 0.004850 -0.165624 0.937040 0.307321 0.007596 0.413176 131 131 131 255
-0.003848 0.006632 0.003171 -0.334971 0.572954 0.747978 0.066987 0.250000 131 131 131 255
-0.003848 0.006632 0.004842 -0.476730 0.823664 0.306986 0.066987 0.250000 131 131 131 255
-0.005900 0.004910 0.003156 -0.511979 0.422559 0.747856 0.178606 0.116978 131 131 131 255
-0.005900 0.004910 0.004830 -0.730125 0.610614 0.306650 0.178606 0.116978 131 131 131 255
-0.007240 0.002590 0.003133 -0.625324 0.221625 0.748192 0.328990 0.030154 131 131 131 255
-0.007240 0.002590 0.004812 -0.895230 0.324076 0.305795 0.328990 0.030154 131 131 131 255
-0.007705 -0.000048 0.003115 -0.661946 0.000519 0.749504 0.500000 0.000000 131 131 131 255
-0.007705 -0.000048 0.004798 -0.952483 0.000000 0.304514 0.500000 0.000000 131 131 131 255
-0.007240 -0.002686 0.003133 -0.624805 -0.221290 0.748711 0.671010 0.030154 131 131 131 255
-0.007240 -0.002686 0.004812 -0.895230 -0.324076 0.305765 0.671010 0.030154 131 131 131 255
-0.005900 -0.005006 0.003156 -0.511429 -0.422346 0.748344 0.821394 0.116978 131 131 131 255
-0.005900 -0.005006 0.004830 -0.730125 -0.610645 0.306589 0.821394 0.116978 131 131 131 255
-0.003848 -0.006728 0.003171 -0.334635 -0.572710 0.748314 0.933013 0.250000 131 131 131 255
-0.003848 -0.006728 0.004842 -0.476730 -0.823695 0.306955 0.933013 0.250000 131 131 131 255
-0.001331 -0.007644 0.003181 -0.116428 -0.653279 0.748100 0.992404 0.413176 131 131 131 255
-0.001331 -0.007644 0.004850 -0.165624 -0.937071 0.307321 0.992404 0.413176 131 131 131 255
0.001348 -0.007644 0.003181 0.116733 -0.653371 0.747948 0.992404 0.586824 131 131 131 255
0.001348 -0.007644 0.004850 0.165624 -0.937040 0.307321 0.992404 0.586824 131 131 131 255
0.003865 -0.006728 0.003171 0.334971 -0.572954 0.747978 0.933013 0.750000 131 131 131 255
0.003865 -0.006728 0.004842 0.476730 -0.823664 0.306986 0.933013 0.750000 131 131 131 255
0.005917 -0.005006 0.003156 0.511979 -0.422559 0.747856 0.821394 0.883022 131 131 131 255
0.005917 -0.005006 0.004830 0.730125 -0.610614 0.306650 0.821394 0.883022 131 131 131 255
0.007256 -0.002686 0.003133 0.625324 -0.221625 0.748192 0.671010 0.969846 131 131 131 255
0.007256 -0.002686 0.004812 0.895230 -0.324076 0.305795 0.671010 0.969846 131 131 131 255
0.011954 0.004303 0.003133 0.698752 0.251473 0.669668 0.328990 0.969846 131 131 131 255
0.012722 -0.000048 0.003115 0.743339 -0.000153 0.668905 0.500000 1.000000 131 131 131 255
0.012722 -0.000048 0.000905 0.741295 -0.000153 -0.671133 0.500000 1.000000 131 131 131 255
0.011956 0.004297 0.000923 0.696707 0.256447 -0.669912 0.328990 0.969846 132 132 132 255
0.009745 0.008126 0.003156 0.570238 0.475265 0.670003 0.178606 0.883022 131 131 131 255
0.009749 0.008121 0.000945 0.567339 0.479324 -0.669576 0.178606 0.883022 131 131 131 255
0.006363 0.010963 0.003171 0.372570 0.642018 0.670034 0.066987 0.750000 131 131 131 255
0.006367 0.010961 0.000961 0.369854 0.643941 -0.669698 0.066987 0.750000 132 132 132 255
0.002215 0.012472 0.003181 0.129460 0.730705 0.670278 0.007596 0.586824 131 131 131 255
0.002217 0.012472 0.000970 0.128269 0.731468 -0.669668 0.007596 0.586824 131 131 131 255
-0.002198 0.012472 0.003181 -0.129490 0.730613 0.670370 0.007596 0.413176 131 131 131 255
-0.002200 0.012472 0.000970 -0.128330 0.731376 -0.669759 0.007596 0.413176 138 138 138 255
-0.006346 0.010963 0.003171 -0.372448 0.641774 0.670339 0.066987 0.250000 131 131 131 255
-0.006350 0.010961 0.000961 -0.369732 0.643727 -0.669973 0.066987 0.250000 132 132 132 255
-0.009728 0.008126 0.003156 -0.569964 0.474960 0.670431 0.178606 0.116978 131 131 131 255
-0.009733 0.008121 0.000945 -0.567064 0.479019 -0.670003 0.178606 0.116978 131 131 131 255
-0.011937 0.004303 0.003133 -0.698386 0.251320 0.670095 0.328990 0.030154 131 131 131 255
-0.011939 0.004297 0.000923 -0.696341 0.256294 -0.670370 0.328990 0.030154 132 132 132 255
-0.012705 -0.000048 0.003115 -0.743339 0.000153 0.668905 0.500000 0.000000 131 131 131 255
-0.012705 -0.000048 0.000905 -0.741295 0.000153 -0.671133 0.500000 0.000000 131 131 131 255
-0.011937 -0.004400 0.003133 -0.698752 -0.251473 0.669668 0.671010 0.030154 132 132 132 255
-0.011939 -0.004393 0.000923 -0.696707 -0.256447 -0.669912 0.671010 0.030154 144 144 144 255
-0.009728 -0.008223 0.003156 -0.570238 -0.475265 0.670003 0.821394 0.116978 143 143 143 255
-0.009733 -0.008218 0.000945 -0.567339 -0.479324 -0.669576 0.821394 0.116978 185 185 185 255
-0.006346 -0.011059 0.003171 -0.372570 -0.642018 0.670034 0.933013 0.250000 131 131 131 255
-0.006350 -0.011057 0.000961 -0.369854 -0.643941 -0.669698 0.933013 0.250000 135 135 135 255
-0.002198 -0.012568 0.003181 -0.129460 -0.730705 0.670278 0.992404 0.413176 131 131 131 255
-0.002200 -0.012568 0.000970 -0.128269 -0.731468 -0.669668 0.992404 0.413176 131 131 131 255
0.002215 -0.012568 0.003181 0.129490 -0.730613 0.670370 0.992404 0.586824 131 131 131 255
0.002217 -0.012568 0.000970 0.128330 -0.731376 -0.669759 0.992404 0.586824 132 132 132 255
0.006363 -0.011059 0.003171 0.372448 -0.641774 0.670339 0.933013 0.750000 131 131 131 255
0.006367 -0.011057 0.000961 0.369732 -0.643727 -0.669973 0.933013 0.750000 132 132 132 255
0.009745 -0.008223 0.003156 0.569964 -0.474960 0.670431 0.821394 0.883022 131 131 131 255
0.009749 -0.008218 0.000945 0.567064 -0.479019 -0.670003 0.821394 0.883022 132 132 132 255
0.011954 -0.004400 0.003133 0.698386 -0.251320 0.670095 0.671010 0.969846 147 147 147 255
0.011956 -0.004393 0.000923 0.696341 -0.256294 -0.670370 0.671010 0.969846 165 165 165 255
0.007256 -0.002686 0.000923 -0.006317 -0.003998 -0.999969 0.671010 0.969846 255 255 255 255
0.005917 -0.005006 0.000945 -0.001373 -0.007477 -0.999969 0.821394 0.883022 255 255 255 255
0.003865 -0.006728 0.000961 -0.002686 -0.002533 -0.999969 0.933013 0.750000 255 255 255 255
0.001348 -0.007644 0.000970 -0.000763 -0.005066 -0.999969 0.992404 0.586824 255 255 255 255
-0.001331 -0.007644 0.000970 0.000977 -0.004486 -0.999969 0.992404 0.413176 255 255 255 255
-0.003848 -0.006728 0.000961 0.002686 -0.004395 -0.999969 0.933013 0.250000 255 255 255 255
-0.005900 -0.005006 0.000945 0.004425 -0.003479 -0.999969 0.821394 0.116978 255 255 255 255
-0.007240 -0.002686 0.000923 0.004730 -0.005860 -0.999969 0.671010 0.030154 255 255 255 255
-0.007705 -0.000048 0.000905 0.009430 0.000397 -0.999939 0.500000 0.000000 255 255 255 255
-0.007240 0.002590 0.000923 0.003998 0.006226 -0.999969 0.328990 0.030154 255 255 255 255
-0.005900 0.004910 0.000945 0.003754 0.003815 -0.999969 0.178606 0.116978 255 255 255 255
-0.003848 0.006632 0.000961 0.002350 0.004761 -0.999969 0.066987 0.250000 255 255 255 255
-0.001331 0.007548 0.000970 0.000732 0.004639 -0.999969 0.007596 0.413176 255 255 255 255
0.001348 0.007548 0.000970 -0.001007 0.004913 -0.999969 0.007596 0.586824 255 255 255 255
0.003865 0.006632 0.000961 -0.003052 0.002167 -0.999969 0.066987 0.750000 255 255 255 255
0.005917 0.004910 0.000945 -0.002045 0.007111 -0.999969 0.178606 0.883022 255 255 255 255
0.007256 0.002590 0.000923 -0.007050 0.003662 -0.999939 0.328990 0.969846 255 255 255 255
0.007722 -0.000048 0.000905 -0.017609 -0.000397 -0.999817 0.500000 1.000000 255 255 255 255
3 0 1 2
3 2 3 4
3 4 5 6
3 2 4 6
3 6 7 8
3 8 9 10
3 6 8 10
3 10 11 12
3 12 13 14
3 10 12 14
3 6 10 14
3 2 6 14
3 14 15 16
3 2 14 16
3 0 2 16
3 17 0 16
3 18 19 20
3 20 21 18
3 22 23 19
3 19 18 22
3 24 25 23
3 23 22 24
3 26 27 25
3 25 24 26
3 28 27 26
3 26 29 28
3 30 28 29
3 29 31 30
3 32 30 31
3 31 33 32
3 34 32 33
3 33 35 34
3 36 34 35
3 35 37 36
3 38 39 36
3 36 37 38
3 40 41 39
3 39 38 40
3 42 43 41
3 41 40 42
3 44 45 43
3 43 42 44
3 46 45 44
3 44 47 46
3 48 46 47
3 47 49 48
3 50 48 49
3 49 51 50
3 52 50 51
3 51 53 52
3 20 52 53
3 53 21 20
3 54 55 56
3 56 57 54
3 57 56 58
3 58 59 57
3 59 58 60
3 60 61 59
3 61 60 62
3 62 63 61
3 62 64 65
3 65 63 62
3 64 66 67
3 67 65 64
3 66 68 69
3 69 67 66
3 68 70 71
3 71 69 68
3 70 72 73
3 73 71 70
3 73 72 74
3 74 75 73
3 75 74 76
3 76 77 75
3 77 76 78
3 78 79 77
3 79 78 80
3 80 81 79
3 80 82 83
3 83 81 80
3 82 84 85
3 85 83 82
3 84 86 87
3 87 85 84
3 86 88 89
3 89 87 86
3 88 55 54
3 54 89 88
3 17 20 19
3 19 0 17
3 0 19 23
3 23 1 0
3 1 23 25
3 25 2 1
3 2 25 27
3 27 3 2
3 3 27 28
3 28 4 3
3 4 28 30
3 30 5 4
3 5 30 32
3 32 6 5
3 6 32 34
3 34 7 6
3 7 34 36
3 36 8 7
3 8 36 39
3 39 9 8
3 9 39 41
3 41 10 9
3 10 41 43
3 43 11 10
3 11 43 45
3 45 12 11
3 12 45 46
3 46 13 12
3 13 46 48
3 48 14 13
3 14 48 50
3 50 15 14
3 15 50 52
3 52 16 15
3 16 52 20
3 20 17 16
3 21 54 57
3 57 18 21
3 18 57 59
3 59 22 18
3 22 59 61
3 61 24 22
3 24 61 63
3 63 26 24
3 26 63 65
3 65 29 26
3 29 65 67
3 67 31 29
3 31 67 69
3 69 33 31
3 33 69 71
3 71 35 33
3 35 71 73
3 73 37 35
3 37 73 75
3 75 38 37
3 38 75 77
3 77 40 38
3 40 77 79
3 79 42 40
3 42 79 81
3 81 44 42
3 44 81 83
3 83 47 44
3 47 83 85
3 85 49 47
3 49 85 87
3 87 51 49
3 51 87 89
3 89 53 51
3 53 89 54
3 54 21 53
3 90 91 92
3 92 93 90
3 94 90 93
3 93 95 94
3 96 94 95
3 95 97 96
3 98 96 97
3 97 99 98
3 100 98 99
3 99 101 100
3 102 100 101
3 101 103 102
3 104 102 103
3 103 105 104
3 106 104 105
3 105 107 106
3 108 106 107
3 107 109 108
3 110 108 109
3 109 111 110
3 112 110 111
3 111 113 112
3 114 112 113
3 113 115 114
3 116 114 115
3 115 117 116
3 118 116 117
3 117 119 118
3 120 118 119
3 119 121 120
3 122 120 121
3 121 123 122
3 124 122 123
3 123 125 124
3 91 124 125
3 125 92 91
3 126 127 128
3 128 129 130
3 130 131 132
3 128 130 132
3 132 133 134
3 134 135 136
3 132 134 136
3 136 137 138
3 138 139 140
3 136 138 140
3 132 136 140
3 128 132 140
3 140 141 142
3 128 140 142
3 126 128 142
3 143 126 142
3 56 55 91
3 91 90 56
3 55 88 124
3 124 91 55
3 88 86 122
3 122 124 88
3 86 84 120
3 120 122 86
3 84 82 118
3 118 120 84
3 82 80 116
3 116 118 82
3 80 78 114
3 114 116 80
3 78 76 112
3 112 114 78
3 76 74 110
3 110 112 76
3 74 72 108
3 108 110 74
3 72 70 106
3 106 108 72
3 70 68 104
3 104 106 70
3 68 66 102
3 102 104 68
3 66 64 100
3 100 102 66
3 64 62 98
3 98 100 64
3 62 60 96
3 96 98 62
3 60 58 94
3 94 96 60
3 58 56 90
3 90 94 58
3 143 142 93
3 93 92 143
3 142 141 95
3 95 93 142
3 141 140 97
3 97 95 141
3 140 139 99
3 99 97 140
3 139 138 101
3 101 99 139
3 138 137 103
3 103 101 138
3 137 136 105
3 105 103 137
3 136 135 107
3 107 105 136
3 135 134 109
3 109 107 135
3 134 133 111
3 111 109 134
3 133 132 113
3 113 111 133
3 132 131 115
3 115 113 132
3 131 130 117
3 117 115 131
3 130 129 119
3 119 117 130
3 129 128 121
3 121 119 129
3 128 127 123
3 123 121 128
3 127 126 125
3 125 123 127
3 126 143 92
3 92 125 126
