ply
format ascii 1.0
comment Created by Blender 2.82 (sub 7) - www.blender.org, source file: 'pieces.blend'
element vertex 144
property float x
property float y
property float z
property float nx
property float ny
property float nz
property float s
property float t
property uchar red
property uchar green
property uchar blue
property uchar alpha
element face 284
property list uchar uint vertex_indices
end_header
0.008879 0.003232 0.028485 0.424604 0.149846 0.892880 0.340954 0.936975 158 158 158 255
0.007238 0.006074 0.028509 0.343150 0.280923 0.896268 0.201091 0.856225 158 158 158 255
0.004725 0.008183 0.028526 0.225227 0.384594 0.895169 0.097282 0.732509 158 158 158 255
0.001641 0.009305 0.028537 0.078188 0.435316 0.896847 0.042046 0.580750 158 158 158 255
-0.001641 0.009305 0.028537 -0.078097 0.435652 0.896695 0.042046 0.419250 158 158 158 255
-0.004725 0.008183 0.028526 -0.225043 0.382672 0.896023 0.097282 0.267490 158 158 158 255
-0.007238 0.006074 0.028509 -0.344829 0.284005 0.894650 0.201091 0.143775 158 158 158 255
-0.008879 0.003232 0.028485 -0.422773 0.147771 0.894070 0.340954 0.063025 158 158 158 255
-0.009449 0.000000 0.028465 -0.454115 -0.000061 0.890927 0.500000 0.034981 158 158 158 255
-0.008879 -0.003232 0.028485 -0.422864 -0.147801 0.894040 0.659046 0.063025 158 158 158 255
-0.007238 -0.006074 0.028509 -0.344890 -0.284036 0.894620 0.798908 0.143775 158 158 158 255
-0.004725 -0.008183 0.028526 -0.225105 -0.382702 0.895993 0.902718 0.267490 158 158 158 255
-0.001641 -0.009305 0.028537 -0.078127 -0.435652 0.896695 0.957954 0.419250 158 158 158 255
0.001641 -0.009305 0.028537 0.078127 -0.435286 0.896878 0.957954 0.580750 158 158 158 255
0.004725 -0.008183 0.028526 0.225196 -0.384533 0.895199 0.902718 0.732509 158 158 158 255
0.007238 -0.006074 0.028509 0.343059 -0.280892 0.896298 0.798909 0.856225 158 158 158 255
0.008879 -0.003232 0.028485 0.424543 -0.149785 0.892911 0.659046 0.936975 158 158 158 255
0.009449 0.000000 0.028465 0.460616 0.000061 0.887570 0.500000 0.965019 158 158 158 255
0.009547 0.003475 0.008301 0.884732 0.319895 0.338908 0.328990 0.969846 158 158 158 255
0.009547 0.003475 0.027685 0.883450 0.319376 0.342753 0.328990 0.969846 158 158 158 255
0.010160 0.000000 0.027665 0.939756 0.000031 0.341746 0.500000 1.000000 158 158 158 255
0.010160 0.000000 0.008283 0.940672 0.000000 0.339244 0.500000 1.000000 158 158 158 255
0.007783 0.006531 0.008322 0.721763 0.603229 0.339274 0.178606 0.883022 158 158 158 255
0.007783 0.006531 0.027709 0.720756 0.602283 0.343089 0.178606 0.883022 158 158 158 255
0.005080 0.008799 0.008336 0.471297 0.813868 0.339732 0.066987 0.750000 158 158 158 255
0.005080 0.008799 0.027726 0.470748 0.812830 0.343059 0.066987 0.750000 158 158 158 255
0.001764 0.010005 0.008346 0.163762 0.926084 0.339915 0.007596 0.586824 158 158 158 255
0.001764 0.010005 0.027737 0.163579 0.924894 0.343150 0.007596 0.586824 158 158 158 255
-0.001764 0.010005 0.027737 -0.163549 0.924924 0.343150 0.007596 0.413176 158 158 158 255
-0.001764 0.010005 0.008346 -0.163762 0.926084 0.339885 0.007596 0.413176 158 158 158 255
-0.005080 0.008799 0.027726 -0.470748 0.812830 0.342998 0.066987 0.250000 158 158 158 255
-0.005080 0.008799 0.008336 -0.471328 0.813868 0.339732 0.066987 0.250000 158 158 158 255
-0.007783 0.006531 0.027709 -0.720756 0.602344 0.343028 0.178606 0.116978 158 158 158 255
-0.007783 0.006531 0.008322 -0.721793 0.603229 0.339244 0.178606 0.116978 158 158 158 255
-0.009547 0.003475 0.027685 -0.883480 0.319376 0.342662 0.328990 0.030154 158 158 158 255
-0.009547 0.003475 0.008301 -0.884732 0.319895 0.338878 0.328990 0.030154 158 158 158 255
-0.010160 0.000000 0.027665 -0.939756 -0.000031 0.341746 0.500000 0.000000 158 158 158 255
-0.010160 0.000000 0.008283 -0.940672 0.000000 0.339244 0.500000 0.000000 158 158 158 255
-0.009547 -0.003475 0.008301 -0.884732 -0.319895 0.338908 0.671010 0.030154 158 158 158 255
-0.009547 -0.003475 0.027685 -0.883450 -0.319376 0.342753 0.671010 0.030154 158 158 158 255
-0.007783 -0.006531 0.008322 -0.721763 -0.603229 0.339274 0.821394 0.116978 158 158 158 255
-0.007783 -0.006531 0.027709 -0.720756 -0.602283 0.343089 0.821394 0.116978 158 158 158 255
-0.005080 -0.008799 0.008336 -0.471297 -0.813868 0.339732 0.933013 0.250000 158 158 158 255
-0.005080 -0.008799 0.027726 -0.470748 -0.812830 0.343059 0.933013 0.250000 158 158 158 255
-0.001764 -0.010005 0.008346 -0.163762 -0.926054 0.339915 0.992404 0.413176 158 158 158 255
-0.001764 -0.010005 0.027737 -0.163579 -0.924894 0.343150 0.992404 0.413176 158 158 158 255
0.001764 -0.010005 0.027737 0.163549 -0.924924 0.343150 0.992404 0.586824 158 158 158 255
0.001764 -0.010005 0.008346 0.163762 -0.926084 0.339885 0.992404 0.586824 158 158 158 255
0.005080 -0.008799 0.027726 0.470748 -0.812830 0.342998 0.933013 0.750000 158 158 158 255
0.005080 -0.008799 0.008336 0.471328 -0.813868 0.339732 0.933013 0.750000 158 158 158 255
0.007783 -0.006531 0.027709 0.720756 -0.602344 0.343028 0.821394 0.883022 158 158 158 255
0.007783 -0.006531 0.008322 0.721793 -0.603229 0.339244 0.821394 0.883022 158 158 158 255
0.009547 -0.003475 0.027685 0.883480 -0.319376 0.342692 0.671010 0.969846 158 158 158 255
0.009547 -0.003475 0.008301 0.884732 -0.319895 0.338878 0.671010 0.969846 158 158 158 255
0.010798 0.000000 0.007470 0.949065 0.000000 0.315043 0.500000 1.000000 158 158 158 255
0.010798 0.000000 0.005225 0.662008 -0.000519 0.749474 0.500000 1.000000 158 158 158 255
0.010147 0.003693 0.005250 0.624744 0.221564 0.748711 0.328990 0.969846 158 158 158 255
0.010147 0.003693 0.007488 0.891995 0.322916 0.316263 0.328990 0.969846 158 158 158 255
0.008272 0.006941 0.005279 0.511246 0.422529 0.748344 0.178606 0.883022 158 158 158 255
0.008272 0.006941 0.007512 0.727470 0.608448 0.317087 0.178606 0.883022 158 158 158 255
0.005399 0.009352 0.005300 0.334483 0.572771 0.748314 0.066987 0.750000 158 158 158 255
0.005399 0.009352 0.007528 0.474990 0.820704 0.317454 0.066987 0.750000 158 158 158 255
0.001875 0.010634 0.005313 0.116367 0.653279 0.748100 0.007596 0.586824 158 158 158 255
0.001875 0.010634 0.007538 0.165014 0.933653 0.317820 0.007596 0.586824 158 158 158 255
-0.001875 0.010634 0.005313 -0.116672 0.653340 0.747978 0.007596 0.413176 158 158 158 255
-0.001875 0.010634 0.007538 -0.165014 0.933653 0.317820 0.007596 0.413176 158 158 158 255
-0.005399 0.009352 0.005300 -0.334788 0.573016 0.748009 0.066987 0.250000 158 158 158 255
-0.005399 0.009352 0.007528 -0.474990 0.820704 0.317484 0.066987 0.250000 158 158 158 255
-0.008272 0.006941 0.005279 -0.511795 0.422742 0.747887 0.178606 0.116978 158 158 158 255
-0.008272 0.006941 0.007512 -0.727470 0.608417 0.317118 0.178606 0.116978 158 158 158 255
-0.010147 0.003693 0.005250 -0.625233 0.221870 0.748192 0.328990 0.030154 158 158 158 255
-0.010147 0.003693 0.007488 -0.891995 0.322916 0.316294 0.328990 0.030154 158 158 158 255
-0.010798 0.000000 0.005225 -0.662008 0.000519 0.749474 0.500000 0.000000 158 158 158 255
-0.010798 0.000000 0.007470 -0.949065 0.000000 0.315043 0.500000 0.000000 158 158 158 255
-0.010147 -0.003693 0.005250 -0.624744 -0.221564 0.748711 0.671010 0.030154 158 158 158 255
-0.010147 -0.003693 0.007488 -0.891995 -0.322916 0.316263 0.671010 0.030154 158 158 158 255
-0.008272 -0.006941 0.005279 -0.511246 -0.422529 0.748344 0.821394 0.116978 158 158 158 255
-0.008272 -0.006941 0.007512 -0.727470 -0.608448 0.317087 0.821394 0.116978 158 158 158 255
-0.005399 -0.009352 0.005300 -0.334483 -0.572771 0.748314 0.933013 0.250000 158 158 158 255
-0.005399 -0.009352 0.007528 -0.474990 -0.820704 0.317454 0.933013 0.250000 158 158 158 255
-0.001875 -0.010634 0.005313 -0.116367 -0.653279 0.748100 0.992404 0.413176 158 158 158 255
-0.001875 -0.010634 0.007538 -0.165014 -0.933653 0.317820 0.992404 0.413176 158 158 158 255
0.001875 -0.010634 0.005313 0.116672 -0.653340 0.747978 0.992404 0.586824 158 158 158 255
0.001875 -0.010634 0.007538 0.165014 -0.933653 0.317820 0.992404 0.586824 158 158 158 255
0.005399 -0.009352 0.005300 0.334788 -0.573016 0.748009 0.933013 0.750000 158 158 158 255
0.005399 -0.009352 0.007528 0.474990 -0.820704 0.317484 0.933013 0.750000 158 158 158 255
0.008272 -0.006941 0.005279 0.511795 -0.422742 0.747887 0.821394 0.883022 158 158 158 255
0.008272 -0.006941 0.007512 0.727470 -0.608417 0.317118 0.821394 0.883022 158 158 158 255
0.010147 -0.003693 0.005250 0.625233 -0.221870 0.748192 0.671010 0.969846 158 158 158 255
0.010147 -0.003693 0.007488 0.891995 -0.322916 0.316294 0.671010 0.969846 158 158 158 255
0.016723 0.006092 0.005250 0.698691 0.251625 0.669668 0.328990 0.969846 158 158 158 255
0.017798 0.000000 0.005225 0.743278 -0.000122 0.668935 0.500000 1.000000 158 158 158 255
0.017798 0.000000 0.002278 0.741356 -0.000122 -0.671072 0.500000 1.000000 158 158 158 255
0.016727 0.006083 0.002303 0.696768 0.256294 -0.669912 0.328990 0.969846 158 158 158 255
0.013631 0.011444 0.005279 0.570147 0.475387 0.670003 0.178606 0.883022 158 158 158 255
0.013637 0.011437 0.002332 0.567400 0.479202 -0.669607 0.178606 0.883022 158 158 158 255
0.008897 0.015415 0.005300 0.372478 0.642079 0.670034 0.066987 0.750000 158 158 158 255
0.008902 0.015412 0.002353 0.369915 0.643880 -0.669698 0.066987 0.750000 158 158 158 255
0.003089 0.017528 0.005313 0.129429 0.730735 0.670247 0.007596 0.586824 158 158 158 255
0.003092 0.017528 0.002366 0.128300 0.731468 -0.669668 0.007596 0.586824 158 158 158 255
-0.003089 0.017528 0.005313 -0.129460 0.730613 0.670370 0.007596 0.413176 158 158 158 255
-0.003092 0.017528 0.002366 -0.128361 0.731346 -0.669790 0.007596 0.413176 158 158 158 255
-0.008897 0.015415 0.005300 -0.372387 0.641835 0.670309 0.066987 0.250000 158 158 158 255
-0.008902 0.015412 0.002353 -0.369823 0.643666 -0.670003 0.066987 0.250000 158 158 158 255
-0.013631 0.011444 0.005279 -0.569903 0.475082 0.670431 0.178606 0.116978 158 158 158 255
-0.013637 0.011437 0.002332 -0.567156 0.478927 -0.670003 0.178606 0.116978 158 158 158 255
-0.016723 0.006092 0.005250 -0.698355 0.251473 0.670095 0.328990 0.030154 158 158 158 255
-0.016727 0.006083 0.002303 -0.696402 0.256142 -0.670339 0.328990 0.030154 158 158 158 255
-0.017798 0.000000 0.005225 -0.743278 0.000122 0.668935 0.500000 0.000000 158 158 158 255
-0.017798 0.000000 0.002278 -0.741356 0.000122 -0.671072 0.500000 0.000000 158 158 158 255
-0.016723 -0.006092 0.005250 -0.698691 -0.251625 0.669668 0.671010 0.030154 158 158 158 255
-0.016727 -0.006083 0.002303 -0.696768 -0.256294 -0.669912 0.671010 0.030154 158 158 158 255
-0.013631 -0.011444 0.005279 -0.570147 -0.475387 0.670003 0.821394 0.116978 158 158 158 255
-0.013637 -0.011437 0.002332 -0.567400 -0.479202 -0.669607 0.821394 0.116978 158 158 158 255
-0.008897 -0.015415 0.005300 -0.372478 -0.642079 0.670034 0.933013 0.250000 158 158 158 255
-0.008902 -0.015412 0.002353 -0.369915 -0.643880 -0.669698 0.933013 0.250000 158 158 158 255
-0.003089 -0.017528 0.005313 -0.129429 -0.730735 0.670247 0.992404 0.413176 158 158 158 255
-0.003092 -0.017528 0.002366 -0.128300 -0.731468 -0.669668 0.992404 0.413176 158 158 158 255
0.003089 -0.017528 0.005313 0.129460 -0.730613 0.670370 0.992404 0.586824 158 158 158 255
0.003092 -0.017528 0.002366 0.128361 -0.731346 -0.669790 0.992404 0.586824 158 158 158 255
0.008897 -0.015415 0.005300 0.372387 -0.641835 0.670309 0.933013 0.750000 158 158 158 255
0.008902 -0.015412 0.002353 0.369823 -0.643666 -0.670003 0.933013 0.750000 158 158 158 255
0.013631 -0.011444 0.005279 0.569903 -0.475082 0.670431 0.821394 0.883022 158 158 158 255
0.013637 -0.011437 0.002332 0.567156 -0.478927 -0.670003 0.821394 0.883022 158 158 158 255
0.016723 -0.006092 0.005250 0.698355 -0.251473 0.670095 0.671010 0.969846 158 158 158 255
0.016727 -0.006083 0.002303 0.696402 -0.256142 -0.670339 0.671010 0.969846 158 158 158 255
0.010147 -0.003693 0.002303 -0.006043 -0.003815 -0.999969 0.671010 0.969846 158 158 158 255
0.008272 -0.006941 0.002332 -0.001312 -0.007111 -0.999969 0.821394 0.883022 158 158 158 255
0.005399 -0.009352 0.002353 -0.002564 -0.002411 -0.999969 0.933013 0.750000 158 158 158 255
0.001875 -0.010634 0.002366 -0.000702 -0.004822 -0.999969 0.992404 0.586824 158 158 158 255
-0.001875 -0.010634 0.002366 0.000916 -0.004273 -0.999969 0.992404 0.413176 158 158 158 255
-0.005399 -0.009352 0.002353 0.002564 -0.004181 -0.999969 0.933013 0.250000 158 158 158 255
-0.008272 -0.006941 0.002332 0.004212 -0.003296 -0.999969 0.821394 0.116978 158 158 158 255
-0.010147 -0.003693 0.002303 0.004486 -0.005585 -0.999969 0.671010 0.030154 158 158 158 255
-0.010798 0.000000 0.002278 0.008972 0.000366 -0.999939 0.500000 0.000000 158 158 158 255
-0.010147 0.003693 0.002303 0.003815 0.005921 -0.999969 0.328990 0.030154 158 158 158 255
-0.008272 0.006941 0.002332 0.003601 0.003632 -0.999969 0.178606 0.116978 158 158 158 255
-0.005399 0.009352 0.002353 0.002228 0.004517 -0.999969 0.066987 0.250000 158 158 158 255
-0.001875 0.010634 0.002366 0.000671 0.004425 -0.999969 0.007596 0.413176 158 158 158 255
0.001875 0.010634 0.002366 -0.000946 0.004669 -0.999969 0.007596 0.586824 158 158 158 255
0.005399 0.009352 0.002353 -0.002899 0.002045 -0.999969 0.066987 0.750000 158 158 158 255
0.008272 0.006941 0.002332 -0.001953 0.006775 -0.999969 0.178606 0.883022 158 158 158 255
0.010147 0.003693 0.002303 -0.006714 0.003479 -0.999969 0.328990 0.969846 158 158 158 255
0.010798 0.000000 0.002278 -0.016785 -0.000366 -0.999847 0.500000 1.000000 158 158 158 255
3 0 1 2
3 2 3 4
3 4 5 6
3 2 4 6
3 6 7 8
3 8 9 10
3 6 8 10
3 10 11 12
3 12 13 14
3 10 12 14
3 6 10 14
3 2 6 14
3 14 15 16
3 2 14 16
3 0 2 16
3 17 0 16
3 18 19 20
3 20 21 18
3 22 23 19
3 19 18 22
3 24 25 23
3 23 22 24
3 26 27 25
3 25 24 26
3 28 27 26
3 26 29 28
3 30 28 29
3 29 31 30
3 32 30 31
3 31 33 32
3 34 32 33
3 33 35 34
3 36 34 35
3 35 37 36
3 38 39 36
3 36 37 38
3 40 41 39
3 39 38 40
3 42 43 41
3 41 40 42
3 44 45 43
3 43 42 44
3 46 45 44
3 44 47 46
3 48 46 47
3 47 49 48
3 50 48 49
3 49 51 50
3 52 50 51
3 51 53 52
3 20 52 53
3 53 21 20
3 54 55 56
3 56 57 54
3 57 56 58
3 58 59 57
3 59 58 60
3 60 61 59
3 61 60 62
3 62 63 61
3 62 64 65
3 65 63 62
3 64 66 67
3 67 65 64
3 66 68 69
3 69 67 66
3 68 70 71
3 71 69 68
3 70 72 73
3 73 71 70
3 73 72 74
3 74 75 73
3 75 74 76
3 76 77 75
3 77 76 78
3 78 79 77
3 79 78 80
3 80 81 79
3 80 82 83
3 83 81 80
3 82 84 85
3 85 83 82
3 84 86 87
3 87 85 84
3 86 88 89
3 89 87 86
3 88 55 54
3 54 89 88
3 17 20 19
3 19 0 17
3 0 19 23
3 23 1 0
3 1 23 25
3 25 2 1
3 2 25 27
3 27 3 2
3 3 27 28
3 28 4 3
3 4 28 30
3 30 5 4
3 5 30 32
3 32 6 5
3 6 32 34
3 34 7 6
3 7 34 36
3 36 8 7
3 8 36 39
3 39 9 8
3 9 39 41
3 41 10 9
3 10 41 43
3 43 11 10
3 11 43 45
3 45 12 11
3 12 45 46
3 46 13 12
3 13 46 48
3 48 14 13
3 14 48 50
3 50 15 14
3 15 50 52
3 52 16 15
3 16 52 20
3 20 17 16
3 21 54 57
3 57 18 21
3 18 57 59
3 59 22 18
3 22 59 61
3 61 24 22
3 24 61 63
3 63 26 24
3 26 63 65
3 65 29 26
3 29 65 67
3 67 31 29
3 31 67 69
3 69 33 31
3 33 69 71
3 71 35 33
3 35 71 73
3 73 37 35
3 37 73 75
3 75 38 37
3 38 75 77
3 77 40 38
3 40 77 79
3 79 42 40
3 42 79 81
3 81 44 42
3 44 81 83
3 83 47 44
3 47 83 85
3 85 49 47
3 49 85 87
3 87 51 49
3 51 87 89
3 89 53 51
3 53 89 54
3 54 21 53
3 90 91 92
3 92 93 90
3 94 90 93
3 93 95 94
3 96 94 95
3 95 97 96
3 98 96 97
3 97 99 98
3 100 98 99
3 99 101 100
3 102 100 101
3 101 103 102
3 104 102 103
3 103 105 104
3 106 104 105
3 105 107 106
3 108 106 107
3 107 109 108
3 110 108 109
3 109 111 110
3 112 110 111
3 111 113 112
3 114 112 113
3 113 115 114
3 116 114 115
3 115 117 116
3 118 116 117
3 117 119 118
3 120 118 119
3 119 121 120
3 122 120 121
3 121 123 122
3 124 122 123
3 123 125 124
3 91 124 125
3 125 92 91
3 126 127 128
3 128 129 130
3 130 131 132
3 128 130 132
3 132 133 134
3 134 135 136
3 132 134 136
3 136 137 138
3 138 139 140
3 136 138 140
3 132 136 140
3 128 132 140
3 140 141 142
3 128 140 142
3 126 128 142
3 143 126 142
3 56 55 91
3 91 90 56
3 55 88 124
3 124 91 55
3 88 86 122
3 122 124 88
3 86 84 120
3 120 122 86
3 84 82 118
3 118 120 84
3 82 80 116
3 116 118 82
3 80 78 114
3 114 116 80
3 78 76 112
3 112 114 78
3 76 74 110
3 110 112 76
3 74 72 108
3 108 110 74
3 72 70 106
3 106 108 72
3 70 68 104
3 104 106 70
3 68 66 102
3 102 104 68
3 66 64 100
3 100 102 66
3 64 62 98
3 98 100 64
3 62 60 96
3 96 98 62
3 60 58 94
3 94 96 60
3 58 56 90
3 90 94 58
3 143 142 93
3 93 92 143
3 142 141 95
3 95 93 142
3 141 140 97
3 97 95 141
3 140 139 99
3 99 97 140
3 139 138 101
3 101 99 139
3 138 137 103
3 103 101 138
3 137 136 105
3 105 103 137
3 136 135 107
3 107 105 136
3 135 134 109
3 109 107 135
3 134 133 111
3 111 109 134
3 133 132 113
3 113 111 133
3 132 131 115
3 115 113 132
3 131 130 117
3 117 115 131
3 130 129 119
3 119 117 130
3 129 128 121
3 121 119 129
3 128 127 123
3 123 121 128
3 127 126 125
3 125 123 127
3 126 143 92
3 92 125 126
