ply
format ascii 1.0
comment Created by Blender 2.82 (sub 7) - www.blender.org, source file: 'pieces.blend'
element vertex 264
property float x
property float y
property float z
property float nx
property float ny
property float nz
property float s
property float t
property uchar red
property uchar green
property uchar blue
property uchar alpha
element face 364
property list uchar uint vertex_indices
end_header
-0.018242 0.008043 0.005855 -0.579424 -0.575518 0.577044 0.117500 0.150000 158 158 158 255
-0.018242 0.008043 0.003399 -0.301492 -0.301492 -0.904508 0.117500 0.000000 158 158 158 255
-0.018242 -0.008043 0.003399 -0.301492 0.301492 -0.904508 0.882500 0.000000 158 158 158 255
-0.018242 -0.008043 0.005855 -0.579424 0.575518 0.577044 0.882500 0.150000 158 158 158 255
0.020733 0.002312 0.003399 0.707083 0.000000 -0.707083 0.882500 0.000000 158 158 158 255
0.020733 0.002312 0.005855 0.707083 0.000000 0.707083 0.882500 0.150000 158 158 158 255
0.020733 -0.002312 0.005855 0.707083 0.000000 0.707083 0.117500 0.150000 158 158 158 255
0.020733 -0.002312 0.003399 0.707083 0.000000 -0.707083 0.117500 0.000000 158 158 158 255
-0.018242 0.008043 0.003399 -0.301492 -0.301492 -0.904508 0.882500 0.000000 158 158 158 255
-0.015344 0.008043 0.003399 -0.253822 -0.203894 -0.945494 0.882500 0.100000 158 158 158 255
-0.015344 -0.008043 0.003399 -0.253822 0.203894 -0.945494 0.117500 0.100000 158 158 158 255
-0.018242 -0.008043 0.003399 -0.301492 0.301492 -0.904508 0.117500 0.000000 158 158 158 255
-0.018242 0.010514 0.005855 -0.301492 0.904508 0.301492 0.150000 0.000000 158 158 158 255
-0.015344 0.010514 0.005855 0.000000 1.000000 0.000000 0.150000 0.100000 158 158 158 255
-0.015344 0.010514 0.003399 -0.285012 0.852504 -0.438093 0.000000 0.100000 158 158 158 255
-0.018242 0.010514 0.003399 0.000000 0.707083 -0.707083 0.000000 0.000000 158 158 158 255
0.009758 -0.008043 0.019774 -0.316080 0.291482 0.902829 0.882500 0.966336 158 158 158 255
0.010733 -0.008043 0.019774 0.707083 0.000000 0.707083 0.882500 1.000000 158 158 158 255
0.010733 0.008043 0.019774 0.707083 0.000000 0.707083 0.117500 1.000000 158 158 158 255
0.009758 0.008043 0.019774 -0.316080 -0.291482 0.902829 0.117500 0.966336 158 158 158 255
-0.018242 -0.010514 0.009974 -0.731773 -0.666219 0.143590 0.598469 0.000000 158 158 158 255
-0.018242 -0.010514 0.005855 -0.301492 -0.904508 0.301492 0.850000 0.000000 158 158 158 255
-0.015344 -0.010514 0.005855 0.000000 -1.000000 0.000000 0.850000 0.100000 158 158 158 255
-0.016492 -0.010514 0.014261 -0.579272 -0.641316 0.503067 0.336639 0.060396 158 158 158 255
0.010733 -0.008043 0.019774 0.707083 0.000000 0.707083 0.117500 1.000000 158 158 158 255
0.010733 -0.008043 0.005855 0.707083 0.000000 0.707083 0.117500 0.150000 158 158 158 255
0.010733 0.008043 0.005855 0.707083 0.000000 0.707083 0.882500 0.150000 158 158 158 255
0.010733 0.008043 0.019774 0.707083 0.000000 0.707083 0.882500 1.000000 158 158 158 255
-0.002492 0.010514 0.019161 -0.092746 0.689871 0.717948 0.962596 0.543564 158 158 158 255
0.009758 0.010514 0.019774 -0.017792 0.701529 0.712394 1.000000 0.966336 158 158 158 255
0.010733 0.010514 0.019774 0.577349 0.577349 0.577349 1.000000 1.000000 158 158 158 255
0.010733 0.010514 0.005855 0.487869 0.854091 0.180151 0.150000 1.000000 158 158 158 255
-0.010781 0.010514 0.005855 0.000000 1.000000 0.000000 0.150000 0.257500 158 158 158 255
-0.011242 0.010514 0.017324 -0.265816 0.672811 0.690359 0.850383 0.241584 158 158 158 255
-0.018242 -0.010514 0.003399 0.000000 -0.707083 -0.707083 1.000000 0.000000 158 158 158 255
-0.015344 -0.010514 0.003399 -0.285012 -0.852504 -0.438093 1.000000 0.100000 158 158 158 255
-0.028242 0.010514 0.005855 -0.577349 0.577349 0.577349 0.000000 0.150000 158 158 158 255
-0.028242 0.010514 0.003399 -0.577349 0.577349 -0.577349 0.000000 0.000000 158 158 158 255
-0.028242 0.008043 0.003399 -0.577349 -0.577349 -0.577349 0.117500 0.000000 158 158 158 255
-0.028242 0.008043 0.005855 -0.577349 -0.577349 0.577349 0.117500 0.150000 158 158 158 255
-0.028242 -0.010514 0.003399 -0.577349 -0.577349 -0.577349 1.000000 0.000000 158 158 158 255
-0.028242 -0.010514 0.005855 -0.577349 -0.577349 0.577349 1.000000 0.150000 158 158 158 255
-0.028242 -0.008043 0.005855 -0.577349 0.577349 0.577349 0.882500 0.150000 158 158 158 255
-0.028242 -0.008043 0.003399 -0.577349 0.577349 -0.577349 0.882500 0.000000 179 179 179 255
0.020733 0.003022 0.003399 0.702445 0.351451 -0.618885 1.000000 0.000000 158 158 158 255
0.020733 0.003022 0.005855 0.702445 0.351451 0.618885 1.000000 0.150000 158 158 158 255
0.020733 -0.003022 0.005855 0.702445 -0.351451 0.618885 0.000000 0.150000 158 158 158 255
0.020733 -0.003022 0.003399 0.702445 -0.351451 -0.618885 0.000000 0.000000 158 158 158 255
-0.018242 0.010514 0.003399 0.000000 0.707083 -0.707083 1.000000 0.000000 158 158 158 255
-0.015344 0.010514 0.003399 -0.285012 0.852504 -0.438093 1.000000 0.100000 158 158 158 255
0.010733 -0.010514 0.003399 0.242103 -0.727073 -0.642415 0.000000 1.000000 158 158 158 255
-0.010781 -0.010514 0.003399 0.285012 -0.852504 -0.438093 0.000000 0.257500 158 158 158 255
-0.010781 -0.008043 0.003399 0.253822 0.203894 -0.945494 0.117500 0.257500 158 158 158 255
0.010733 -0.008043 0.003399 0.000000 0.000000 -1.000000 0.117500 1.000000 158 158 158 255
0.009758 -0.010514 0.019774 -0.017792 -0.701498 0.712394 1.000000 0.966336 158 158 158 255
0.010733 -0.010514 0.019774 0.577349 -0.577349 0.577349 1.000000 1.000000 158 158 158 255
0.010733 0.010514 0.019774 0.577349 0.577349 0.577349 0.000000 1.000000 158 158 158 255
0.009758 0.010514 0.019774 -0.017792 0.701529 0.712394 0.000000 0.966336 158 158 158 255
-0.018242 0.010514 0.009974 -0.731773 0.666219 0.143590 0.000000 0.401531 158 158 158 255
-0.018242 0.010514 0.005855 -0.301492 0.904508 0.301492 0.000000 0.150000 158 158 158 255
-0.018242 0.008043 0.009974 -0.731773 -0.666219 0.143590 0.117500 0.401531 158 158 158 255
-0.018242 -0.010514 0.005855 -0.301492 -0.904508 0.301492 1.000000 0.150000 158 158 158 255
-0.018242 -0.010514 0.009974 -0.731773 -0.666219 0.143590 1.000000 0.401531 158 158 158 255
-0.018242 -0.008043 0.009974 -0.731773 0.666219 0.143590 0.882500 0.401531 163 163 163 255
0.010733 -0.010514 0.019774 0.577349 -0.577349 0.577349 0.000000 1.000000 158 158 158 255
0.010733 -0.010514 0.005855 0.487869 -0.854091 0.180151 0.000000 0.150000 158 158 158 255
0.010733 0.010514 0.005855 0.487869 0.854091 0.180151 1.000000 0.150000 158 158 158 255
-0.016492 0.010514 0.014261 -0.579272 0.641316 0.503067 0.000000 0.337154 158 158 158 255
-0.018242 0.010514 0.009974 -0.731773 0.666219 0.143590 0.000000 0.127427 158 158 158 255
-0.018242 0.008043 0.009974 -0.731773 -0.666219 0.143590 0.117500 0.127427 158 158 158 255
-0.016492 0.008043 0.014261 -0.579272 -0.641316 0.503067 0.117500 0.337154 158 158 158 255
-0.018242 -0.010514 0.009974 -0.731773 -0.666219 0.143590 1.000000 0.127427 158 158 158 255
-0.016492 -0.010514 0.014261 -0.579272 -0.641316 0.503067 1.000000 0.337154 158 158 158 255
-0.016492 -0.008043 0.014261 -0.579272 0.641316 0.503067 0.882500 0.337154 158 158 158 255
-0.018242 -0.008043 0.009974 -0.731773 0.666219 0.143590 0.882500 0.127427 163 163 163 255
-0.011242 0.010514 0.017324 -0.265816 0.672811 0.690359 0.000000 0.546881 158 158 158 255
-0.011242 0.008043 0.017324 -0.265816 -0.672811 0.690359 0.117500 0.546881 158 158 158 255
-0.011242 -0.010514 0.017324 -0.265816 -0.672811 0.690359 1.000000 0.546881 158 158 158 255
-0.011242 -0.008043 0.017324 -0.265816 0.672811 0.690359 0.882500 0.546881 158 158 158 255
-0.002492 0.010514 0.019161 -0.092746 0.689871 0.717948 0.000000 0.756608 158 158 158 255
-0.002492 0.008043 0.019161 -0.092746 -0.689871 0.717948 0.117500 0.756608 158 158 158 255
-0.002492 -0.010514 0.019161 -0.092746 -0.689871 0.717948 1.000000 0.756608 158 158 158 255
-0.002492 -0.008043 0.019161 -0.092746 0.689871 0.717948 0.882500 0.756608 158 158 158 255
0.010733 -0.010514 0.003399 0.242103 -0.727073 -0.642415 0.000000 0.000000 158 158 158 255
0.010733 -0.008043 0.003399 0.000000 0.000000 -1.000000 0.117500 0.000000 158 158 158 255
0.010733 0.008043 0.003399 0.000000 0.000000 -1.000000 0.882500 0.000000 158 158 158 255
0.010733 0.010514 0.003399 0.242103 0.727073 -0.642415 1.000000 0.000000 158 158 158 255
0.009758 0.008043 0.006087 -0.579516 -0.577776 0.574725 0.117500 0.966336 163 163 163 255
0.009758 -0.008043 0.006087 -0.579516 0.577776 0.574725 0.882500 0.966336 158 158 158 255
0.009758 0.008043 0.006087 -0.579516 -0.577776 0.574725 0.882500 0.000000 163 163 163 255
-0.018242 0.008043 0.005855 -0.579424 -0.575518 0.577044 0.150000 1.000000 158 158 158 255
-0.018242 -0.008043 0.005855 -0.579424 0.575518 0.577044 1.000000 0.150000 158 158 158 255
0.009758 -0.008043 0.006087 -0.579516 0.577776 0.574725 0.117500 0.000000 158 158 158 255
-0.010781 0.008043 0.003399 0.253822 -0.203894 -0.945494 0.882500 0.257500 158 158 158 255
-0.010781 0.010514 0.003399 0.285012 0.852504 -0.438093 0.000000 0.257500 158 158 158 255
-0.010781 -0.010514 0.003399 0.285012 -0.852504 -0.438093 1.000000 0.257500 158 158 158 255
-0.010781 -0.010514 0.005855 0.000000 -0.999969 0.000000 0.850000 0.257500 158 158 158 255
-0.012290 0.010514 -0.000006 0.435224 0.602496 -0.668966 1.000000 0.257500 158 158 158 255
-0.012290 0.008043 -0.000006 0.435224 -0.602496 -0.668966 0.882500 0.257500 158 158 158 255
-0.013835 0.008043 -0.000006 -0.435224 -0.602496 -0.668966 0.882500 0.100000 159 159 159 255
-0.013835 0.010514 -0.000006 -0.435224 0.602496 -0.668966 1.000000 0.100000 158 158 158 255
-0.018242 -0.010514 0.003399 0.000000 -0.707083 -0.707083 0.000000 0.000000 158 158 158 255
-0.015344 -0.010514 0.003399 -0.285012 -0.852504 -0.438093 0.000000 0.100000 158 158 158 255
-0.013835 -0.010514 -0.000006 -0.435224 -0.602496 -0.668966 0.000000 0.100000 158 158 158 255
-0.013835 -0.008043 -0.000006 -0.435224 0.602496 -0.668966 0.117500 0.100000 158 158 158 255
-0.012290 -0.008043 -0.000006 0.435224 0.602496 -0.668966 0.117500 0.257500 158 158 158 255
-0.012290 -0.010514 -0.000006 0.435224 -0.602496 -0.668966 0.000000 0.257500 158 158 158 255
0.010733 0.008043 0.003399 0.000000 0.000000 -1.000000 0.882500 1.000000 158 158 158 255
0.010733 0.010514 0.003399 0.242103 0.727073 -0.642415 0.000000 1.000000 158 158 158 255
0.010733 -0.010514 0.003399 0.242103 -0.727073 -0.642415 1.000000 1.000000 158 158 158 255
0.010733 -0.010514 0.005855 0.487869 -0.854091 0.180151 0.850000 1.000000 158 158 158 255
0.010733 0.010514 0.003399 0.242103 0.727073 -0.642415 1.000000 1.000000 158 158 158 255
-0.010781 0.010514 0.003399 0.285012 0.852504 -0.438093 1.000000 0.257500 158 158 158 255
-0.018242 0.010514 0.009974 -0.731773 0.666219 0.143590 0.401531 0.000000 158 158 158 255
-0.016492 0.010514 0.014261 -0.579272 0.641316 0.503067 0.663361 0.060396 158 158 158 255
-0.011242 -0.010514 0.017324 -0.265816 -0.672811 0.690359 0.149617 0.241584 158 158 158 255
0.009758 -0.010514 0.019774 -0.017792 -0.701498 0.712394 0.000000 0.966336 158 158 158 255
-0.002492 -0.010514 0.019161 -0.092746 -0.689871 0.717948 0.037404 0.543564 158 158 158 255
0.018079 -0.001212 0.004826 -0.739769 -0.672811 0.000000 0.750000 0.000000 158 158 158 255
0.018339 -0.001212 0.006433 -0.701773 -0.672231 0.235725 0.805556 0.000000 158 158 158 255
0.018339 0.001212 0.006433 -0.701773 0.672231 0.235725 0.805556 1.000000 158 158 158 255
0.018079 0.001212 0.004826 -0.739769 0.672811 0.000000 0.750000 1.000000 158 158 158 255
0.019088 -0.001212 0.007846 -0.586413 -0.670614 0.454237 0.861111 0.000000 158 158 158 255
0.019088 0.001212 0.007846 -0.586413 0.670614 0.454237 0.861111 1.000000 158 158 158 255
0.020236 -0.001212 0.008894 -0.394177 -0.668630 0.630482 0.916667 0.000000 158 158 158 255
0.020236 0.001212 0.008894 -0.394177 0.668630 0.630482 0.916667 1.000000 158 158 158 255
0.021644 -0.001212 0.009452 -0.139653 -0.667226 0.731620 0.972222 0.000000 158 158 158 255
0.021644 0.001212 0.009452 -0.139653 0.667226 0.731620 0.972222 1.000000 158 158 158 255
0.023143 -0.001212 0.009452 0.139653 -0.667226 0.731620 1.027778 0.000000 158 158 158 255
0.023143 0.001212 0.009452 0.139653 0.667226 0.731620 1.027778 1.000000 158 158 158 255
0.023143 -0.001212 0.009452 0.139653 -0.667226 0.731620 0.027778 0.000000 158 158 158 255
0.024551 -0.001212 0.008894 0.394177 -0.668630 0.630482 0.083333 0.000000 158 158 158 255
0.024551 0.001212 0.008894 0.394177 0.668630 0.630482 0.083333 1.000000 158 158 158 255
0.023143 0.001212 0.009452 0.139653 0.667226 0.731620 0.027778 1.000000 158 158 158 255
0.025698 -0.001212 0.007846 0.586413 -0.670614 0.454237 0.138889 0.000000 158 158 158 255
0.025698 0.001212 0.007846 0.586413 0.670614 0.454237 0.138889 1.000000 158 158 158 255
0.026448 -0.001212 0.006433 0.701773 -0.672231 0.235725 0.194444 0.000000 158 158 158 255
0.026448 0.001212 0.006433 0.701773 0.672231 0.235725 0.194444 1.000000 158 158 158 255
0.026708 -0.001212 0.004826 0.739769 -0.672811 0.000000 0.250000 0.000000 158 158 158 255
0.026708 0.001212 0.004826 0.739769 0.672811 0.000000 0.250000 1.000000 158 158 158 255
0.026448 -0.001212 0.003220 0.701773 -0.672231 -0.235725 0.305556 0.000000 158 158 158 255
0.026448 0.001212 0.003220 0.701773 0.672231 -0.235725 0.305556 1.000000 158 158 158 255
0.025698 -0.001212 0.001807 0.586413 -0.670614 -0.454237 0.361111 0.000000 158 158 158 255
0.025698 0.001212 0.001807 0.586413 0.670614 -0.454237 0.361111 1.000000 158 158 158 255
0.024551 -0.001212 0.000758 0.422803 -0.679952 -0.599048 0.416667 0.000000 158 158 158 255
0.024551 0.001212 0.000758 0.422803 0.679952 -0.599048 0.416667 1.000000 158 158 158 255
0.023143 -0.001212 0.000009 0.182562 -0.656453 -0.731895 0.472222 0.000000 158 158 158 255
0.023143 0.001212 0.000009 0.182562 0.656453 -0.731895 0.472222 1.000000 158 158 158 255
0.021644 -0.001212 0.000009 -0.182562 -0.656453 -0.731895 0.527778 0.000000 158 158 158 255
0.021644 0.001212 0.000009 -0.182562 0.656453 -0.731895 0.527778 1.000000 158 158 158 255
0.020236 -0.001212 0.000758 -0.422803 -0.679952 -0.599048 0.583333 0.000000 158 158 158 255
0.020236 0.001212 0.000758 -0.422803 0.679952 -0.599048 0.583333 1.000000 241 241 241 255
0.019088 -0.001212 0.001807 -0.586413 -0.670614 -0.454237 0.638889 0.000000 158 158 158 255
0.019088 0.001212 0.001807 -0.586413 0.670614 -0.454237 0.638889 1.000000 179 179 179 255
0.018339 -0.001212 0.003220 -0.701773 -0.672231 -0.235725 0.694444 0.000000 158 158 158 255
0.018339 0.001212 0.003220 -0.701773 0.672231 -0.235725 0.694444 1.000000 158 158 158 255
0.021858 -0.001585 0.004337 -0.336772 -0.905789 -0.257149 0.821394 0.883022 158 158 158 255
0.022044 -0.001585 0.004167 -0.224250 -0.908139 -0.353465 0.933013 0.750000 158 158 158 255
0.022272 -0.001585 0.004077 -0.078951 -0.909787 -0.407483 0.992404 0.586824 158 158 158 255
0.022515 -0.001585 0.004077 0.078951 -0.909787 -0.407483 0.992404 0.413176 158 158 158 255
0.022743 -0.001585 0.004167 0.224250 -0.908139 -0.353465 0.933013 0.250000 158 158 158 255
0.022929 -0.001585 0.004337 0.336772 -0.905789 -0.257118 0.821394 0.116978 158 158 158 255
0.023050 -0.001585 0.004566 0.406232 -0.903806 -0.134526 0.671010 0.030154 158 158 158 255
0.023092 -0.001585 0.004826 0.429518 -0.903043 0.000000 0.500000 0.000000 158 158 158 255
0.023050 -0.001585 0.005086 0.406232 -0.903806 0.134526 0.328990 0.030154 158 158 158 255
0.022929 -0.001585 0.005315 0.336772 -0.905789 0.257149 0.178606 0.116978 158 158 158 255
0.022743 -0.001585 0.005485 0.224250 -0.908139 0.353465 0.066987 0.250000 158 158 158 255
0.022515 -0.001585 0.005575 0.078951 -0.909787 0.407483 0.007596 0.413176 158 158 158 255
0.022272 -0.001585 0.005575 -0.078951 -0.909787 0.407483 0.007596 0.586824 158 158 158 255
0.022044 -0.001585 0.005485 -0.224250 -0.908139 0.353465 0.066987 0.750000 158 158 158 255
0.021858 -0.001585 0.005315 -0.336772 -0.905759 0.257149 0.178606 0.883022 158 158 158 255
0.021737 -0.001585 0.005086 -0.406232 -0.903806 0.134526 0.328990 0.969846 158 158 158 255
0.021695 -0.001585 0.004826 -0.429518 -0.903043 0.000000 0.500000 1.000000 158 158 158 255
0.021737 -0.001585 0.004566 -0.406232 -0.903806 -0.134526 0.671010 0.969846 158 158 158 255
0.021737 0.001585 0.005086 -0.406201 0.903806 0.134526 0.328990 0.969846 158 158 158 255
0.021858 0.001585 0.005315 -0.336741 0.905789 0.257118 0.178606 0.883022 158 158 158 255
0.022044 0.001585 0.005485 -0.224219 0.908170 0.353435 0.066987 0.750000 158 158 158 255
0.022272 0.001585 0.005575 -0.078921 0.909787 0.407453 0.007596 0.586824 158 158 158 255
0.022515 0.001585 0.005575 0.078921 0.909787 0.407453 0.007596 0.413176 158 158 158 255
0.022743 0.001585 0.005485 0.224219 0.908170 0.353435 0.066987 0.250000 158 158 158 255
0.022929 0.001585 0.005315 0.336741 0.905789 0.257118 0.178606 0.116978 158 158 158 255
0.023050 0.001585 0.005086 0.406201 0.903806 0.134526 0.328990 0.030154 158 158 158 255
0.023092 0.001585 0.004826 0.429487 0.903043 0.000000 0.500000 0.000000 158 158 158 255
0.023050 0.001585 0.004566 0.406201 0.903806 -0.134526 0.671010 0.030154 158 158 158 255
0.022929 0.001585 0.004337 0.336741 0.905789 -0.257118 0.821394 0.116978 158 158 158 255
0.022743 0.001585 0.004167 0.224219 0.908170 -0.353435 0.933013 0.250000 158 158 158 255
0.022515 0.001585 0.004077 0.078921 0.909787 -0.407453 0.992404 0.413176 158 158 158 255
0.022272 0.001585 0.004077 -0.078921 0.909787 -0.407453 0.992404 0.586824 158 158 158 255
0.022044 0.001585 0.004167 -0.224219 0.908170 -0.353435 0.933013 0.750000 158 158 158 255
0.021858 0.001585 0.004337 -0.336741 0.905789 -0.257118 0.821394 0.883022 158 158 158 255
0.021737 0.001585 0.004566 -0.406201 0.903806 -0.134526 0.671010 0.969846 158 158 158 255
0.021695 0.001585 0.004826 -0.429487 0.903043 0.000000 0.500000 1.000000 158 158 158 255
0.018339 -0.001212 0.006433 -0.701773 -0.672231 0.235725 0.328990 0.969846 158 158 158 255
0.018079 -0.001212 0.004826 -0.739769 -0.672811 0.000000 0.500000 1.000000 158 158 158 255
0.021343 -0.001212 0.004826 -0.361278 -0.932432 0.000000 0.500000 1.000000 158 158 158 255
0.021406 -0.001212 0.005217 -0.339518 -0.933470 0.115329 0.328990 0.969846 158 158 158 255
0.018339 -0.001212 0.003220 -0.701773 -0.672231 -0.235725 0.671010 0.969846 158 158 158 255
0.021406 -0.001212 0.004435 -0.339518 -0.933470 -0.115329 0.671010 0.969846 158 158 158 255
0.019088 -0.001212 0.001807 -0.586413 -0.670614 -0.454237 0.821394 0.883022 158 158 158 255
0.021589 -0.001212 0.004091 -0.276681 -0.936155 -0.216773 0.821394 0.883022 158 158 158 255
0.020236 -0.001212 0.000758 -0.422803 -0.679952 -0.599048 0.933013 0.750000 158 158 158 255
0.021868 -0.001212 0.003836 -0.180364 -0.939268 -0.291849 0.933013 0.750000 158 158 158 255
0.021644 -0.001212 0.000009 -0.182562 -0.656453 -0.731895 0.992404 0.586824 158 158 158 255
0.022211 -0.001212 0.003700 -0.062532 -0.941343 -0.331523 0.992404 0.586824 158 158 158 255
0.023143 -0.001212 0.000009 0.182562 -0.656453 -0.731895 0.992404 0.413176 158 158 158 255
0.022576 -0.001212 0.003700 0.062532 -0.941343 -0.331523 0.992404 0.413176 158 158 158 255
0.024551 -0.001212 0.000758 0.422803 -0.679952 -0.599048 0.933013 0.250000 158 158 158 255
0.022918 -0.001212 0.003836 0.180364 -0.939268 -0.291849 0.933013 0.250000 158 158 158 255
0.025698 -0.001212 0.001807 0.586413 -0.670614 -0.454237 0.821394 0.116978 158 158 158 255
0.023198 -0.001212 0.004091 0.276681 -0.936155 -0.216773 0.821394 0.116978 158 158 158 255
0.026448 -0.001212 0.003220 0.701773 -0.672231 -0.235725 0.671010 0.030154 158 158 158 255
0.023380 -0.001212 0.004435 0.339518 -0.933470 -0.115329 0.671010 0.030154 158 158 158 255
0.026708 -0.001212 0.004826 0.739769 -0.672811 0.000000 0.500000 0.000000 158 158 158 255
0.023444 -0.001212 0.004826 0.361278 -0.932432 0.000000 0.500000 0.000000 158 158 158 255
0.026448 -0.001212 0.006433 0.701773 -0.672231 0.235725 0.328990 0.030154 158 158 158 255
0.023380 -0.001212 0.005217 0.339518 -0.933470 0.115329 0.328990 0.030154 158 158 158 255
0.025698 -0.001212 0.007846 0.586413 -0.670614 0.454237 0.178606 0.116978 158 158 158 255
0.023198 -0.001212 0.005561 0.276681 -0.936155 0.216773 0.178606 0.116978 158 158 158 255
0.024551 -0.001212 0.008894 0.394177 -0.668630 0.630482 0.066987 0.250000 158 158 158 255
0.022918 -0.001212 0.005816 0.180364 -0.939268 0.291849 0.066987 0.250000 158 158 158 255
0.023143 -0.001212 0.009452 0.139653 -0.667226 0.731620 0.007596 0.413176 158 158 158 255
0.022576 -0.001212 0.005952 0.062532 -0.941343 0.331523 0.007596 0.413176 158 158 158 255
0.021644 -0.001212 0.009452 -0.139653 -0.667226 0.731620 0.007596 0.586824 158 158 158 255
0.022211 -0.001212 0.005952 -0.062532 -0.941343 0.331523 0.007596 0.586824 158 158 158 255
0.020236 -0.001212 0.008894 -0.394177 -0.668630 0.630482 0.066987 0.750000 158 158 158 255
0.021868 -0.001212 0.005816 -0.180364 -0.939268 0.291849 0.066987 0.750000 158 158 158 255
0.019088 -0.001212 0.007846 -0.586413 -0.670614 0.454237 0.178606 0.883022 158 158 158 255
0.021589 -0.001212 0.005561 -0.276681 -0.936155 0.216773 0.178606 0.883022 158 158 158 255
0.018079 0.001212 0.004826 -0.739769 0.672811 0.000000 0.500000 1.000000 158 158 158 255
0.018339 0.001212 0.006433 -0.701773 0.672231 0.235725 0.328990 0.969846 158 158 158 255
0.021406 0.001212 0.005217 -0.339488 0.933500 0.115329 0.328990 0.969846 158 158 158 255
0.021343 0.001212 0.004826 -0.361248 0.932463 0.000000 0.500000 1.000000 158 158 158 255
0.019088 0.001212 0.007846 -0.586413 0.670614 0.454237 0.178606 0.883022 158 158 158 255
0.021589 0.001212 0.005561 -0.276681 0.936186 0.216773 0.178606 0.883022 158 158 158 255
0.020236 0.001212 0.008894 -0.394177 0.668630 0.630482 0.066987 0.750000 158 158 158 255
0.021868 0.001212 0.005816 -0.180364 0.939299 0.291818 0.066987 0.750000 158 158 158 255
0.021644 0.001212 0.009452 -0.139653 0.667226 0.731620 0.007596 0.586824 158 158 158 255
0.022211 0.001212 0.005952 -0.062532 0.941374 0.331492 0.007596 0.586824 158 158 158 255
0.023143 0.001212 0.009452 0.139653 0.667226 0.731620 0.007596 0.413176 158 158 158 255
0.022576 0.001212 0.005952 0.062532 0.941374 0.331492 0.007596 0.413176 158 158 158 255
0.024551 0.001212 0.008894 0.394177 0.668630 0.630482 0.066987 0.250000 158 158 158 255
0.022918 0.001212 0.005816 0.180364 0.939299 0.291818 0.066987 0.250000 158 158 158 255
0.025698 0.001212 0.007846 0.586413 0.670614 0.454237 0.178606 0.116978 158 158 158 255
0.023198 0.001212 0.005561 0.276681 0.936186 0.216773 0.178606 0.116978 158 158 158 255
0.026448 0.001212 0.006433 0.701773 0.672231 0.235725 0.328990 0.030154 158 158 158 255
0.023380 0.001212 0.005217 0.339488 0.933500 0.115329 0.328990 0.030154 158 158 158 255
0.026708 0.001212 0.004826 0.739769 0.672811 0.000000 0.500000 0.000000 158 158 158 255
0.023444 0.001212 0.004826 0.361248 0.932463 0.000000 0.500000 0.000000 158 158 158 255
0.026448 0.001212 0.003220 0.701773 0.672231 -0.235725 0.671010 0.030154 158 158 158 255
0.023380 0.001212 0.004435 0.339488 0.933500 -0.115329 0.671010 0.030154 158 158 158 255
0.025698 0.001212 0.001807 0.586413 0.670614 -0.454237 0.821394 0.116978 158 158 158 255
0.023198 0.001212 0.004091 0.276681 0.936186 -0.216773 0.821394 0.116978 158 158 158 255
0.024551 0.001212 0.000758 0.422803 0.679952 -0.599048 0.933013 0.250000 158 158 158 255
0.022918 0.001212 0.003836 0.180364 0.939299 -0.291818 0.933013 0.250000 158 158 158 255
0.023143 0.001212 0.000009 0.182562 0.656453 -0.731895 0.992404 0.413176 158 158 158 255
0.022576 0.001212 0.003700 0.062532 0.941374 -0.331492 0.992404 0.413176 158 158 158 255
0.021644 0.001212 0.000009 -0.182562 0.656453 -0.731895 0.992404 0.586824 158 158 158 255
0.022211 0.001212 0.003700 -0.062532 0.941374 -0.331492 0.992404 0.586824 158 158 158 255
0.020236 0.001212 0.000758 -0.422803 0.679952 -0.599048 0.933013 0.750000 241 241 241 255
0.021868 0.001212 0.003836 -0.180364 0.939299 -0.291818 0.933013 0.750000 158 158 158 255
0.019088 0.001212 0.001807 -0.586413 0.670614 -0.454237 0.821394 0.883022 179 179 179 255
0.021589 0.001212 0.004091 -0.276681 0.936186 -0.216773 0.821394 0.883022 158 158 158 255
0.018339 0.001212 0.003220 -0.701773 0.672231 -0.235725 0.671010 0.969846 158 158 158 255
0.021406 0.001212 0.004435 -0.339488 0.933500 -0.115329 0.671010 0.969846 158 158 158 255
3 0 1 2
3 2 3 0
3 4 5 6
3 6 7 4
3 8 9 10
3 10 11 8
3 12 13 14
3 14 15 12
3 16 17 18
3 18 19 16
3 20 21 22
3 22 23 20
3 24 25 26
3 26 27 24
3 28 29 30
3 28 30 31
3 28 31 32
3 33 28 32
3 34 35 22
3 22 21 34
3 36 37 38
3 38 39 36
3 40 41 42
3 42 43 40
3 44 45 5
3 5 4 44
3 46 47 7
3 7 6 46
3 48 49 9
3 9 8 48
3 50 51 52
3 52 53 50
3 54 55 17
3 17 16 54
3 56 57 19
3 19 18 56
3 58 59 0
3 0 60 58
3 61 62 63
3 63 3 61
3 64 65 25
3 25 24 64
3 66 30 27
3 27 26 66
3 67 68 69
3 69 70 67
3 71 72 73
3 73 74 71
3 75 67 70
3 70 76 75
3 72 77 78
3 78 73 72
3 79 75 76
3 76 80 79
3 77 81 82
3 82 78 77
3 57 79 80
3 80 19 57
3 81 54 16
3 16 82 81
3 15 1 38
3 38 37 15
3 1 0 39
3 39 38 1
3 0 59 36
3 36 39 0
3 59 15 37
3 37 36 59
3 34 61 41
3 41 40 34
3 61 3 42
3 42 41 61
3 3 2 43
3 43 42 3
3 2 34 40
3 40 43 2
3 83 84 7
3 7 47 83
3 84 85 4
3 4 7 84
3 85 86 44
3 44 4 85
3 86 66 45
3 45 44 86
3 66 26 5
3 5 45 66
3 26 25 6
3 6 5 26
3 25 65 46
3 46 6 25
3 65 83 47
3 47 46 65
3 16 19 87
3 87 88 16
3 89 90 91
3 91 92 89
3 73 78 82
3 82 16 88
3 73 82 88
3 73 88 91
3 63 73 91
3 89 19 80
3 80 76 70
3 80 70 69
3 89 80 69
3 0 89 69
3 93 52 10
3 10 9 93
3 32 94 14
3 14 13 32
3 95 96 22
3 22 35 95
3 97 98 99
3 99 100 97
3 101 11 10
3 10 102 101
3 103 104 105
3 105 106 103
3 107 53 52
3 52 93 107
3 31 108 94
3 94 32 31
3 109 110 96
3 96 95 109
3 111 107 93
3 93 112 111
3 49 112 97
3 97 100 49
3 112 93 98
3 98 97 112
3 93 9 99
3 99 98 93
3 9 49 100
3 100 99 9
3 102 10 104
3 104 103 102
3 10 52 105
3 105 104 10
3 52 51 106
3 106 105 52
3 51 102 103
3 103 106 51
3 13 12 113
3 113 114 13
3 32 13 114
3 114 33 32
3 96 115 23
3 23 22 96
3 110 64 116
3 116 117 115
3 110 116 115
3 96 110 115
3 118 119 120
3 120 121 118
3 119 122 123
3 123 120 119
3 122 124 125
3 125 123 122
3 124 126 127
3 127 125 124
3 126 128 129
3 129 127 126
3 130 131 132
3 132 133 130
3 131 134 135
3 135 132 131
3 134 136 137
3 137 135 134
3 136 138 139
3 139 137 136
3 138 140 141
3 141 139 138
3 140 142 143
3 143 141 140
3 142 144 145
3 145 143 142
3 144 146 147
3 147 145 144
3 146 148 149
3 149 147 146
3 148 150 151
3 151 149 148
3 150 152 153
3 153 151 150
3 152 154 155
3 155 153 152
3 154 118 121
3 121 155 154
3 156 157 158
3 158 159 160
3 160 161 162
3 158 160 162
3 162 163 164
3 164 165 166
3 162 164 166
3 166 167 168
3 168 169 170
3 166 168 170
3 162 166 170
3 158 162 170
3 170 171 172
3 158 170 172
3 156 158 172
3 173 156 172
3 174 175 176
3 176 177 178
3 178 179 180
3 176 178 180
3 180 181 182
3 182 183 184
3 180 182 184
3 184 185 186
3 186 187 188
3 184 186 188
3 180 184 188
3 176 180 188
3 188 189 190
3 176 188 190
3 174 176 190
3 191 174 190
3 192 193 194
3 194 195 192
3 193 196 197
3 197 194 193
3 196 198 199
3 199 197 196
3 198 200 201
3 201 199 198
3 200 202 203
3 203 201 200
3 202 204 205
3 205 203 202
3 204 206 207
3 207 205 204
3 206 208 209
3 209 207 206
3 208 210 211
3 211 209 208
3 210 212 213
3 213 211 210
3 212 214 215
3 215 213 212
3 214 216 217
3 217 215 214
3 216 218 219
3 219 217 216
3 218 220 221
3 221 219 218
3 220 222 223
3 223 221 220
3 222 224 225
3 225 223 222
3 224 226 227
3 227 225 224
3 226 192 195
3 195 227 226
3 228 229 230
3 230 231 228
3 229 232 233
3 233 230 229
3 232 234 235
3 235 233 232
3 234 236 237
3 237 235 234
3 236 238 239
3 239 237 236
3 238 240 241
3 241 239 238
3 240 242 243
3 243 241 240
3 242 244 245
3 245 243 242
3 244 246 247
3 247 245 244
3 246 248 249
3 249 247 246
3 248 250 251
3 251 249 248
3 250 252 253
3 253 251 250
3 252 254 255
3 255 253 252
3 254 256 257
3 257 255 254
3 256 258 259
3 259 257 256
3 258 260 261
3 261 259 258
3 260 262 263
3 263 261 260
3 262 228 231
3 231 263 262
3 195 194 172
3 172 171 195
3 194 197 173
3 173 172 194
3 197 199 156
3 156 173 197
3 199 201 157
3 157 156 199
3 201 203 158
3 158 157 201
3 203 205 159
3 159 158 203
3 205 207 160
3 160 159 205
3 207 209 161
3 161 160 207
3 209 211 162
3 162 161 209
3 211 213 163
3 163 162 211
3 213 215 164
3 164 163 213
3 215 217 165
3 165 164 215
3 217 219 166
3 166 165 217
3 219 221 167
3 167 166 219
3 221 223 168
3 168 167 221
3 223 225 169
3 169 168 223
3 225 227 170
3 170 169 225
3 227 195 171
3 171 170 227
3 231 230 174
3 174 191 231
3 230 233 175
3 175 174 230
3 233 235 176
3 176 175 233
3 235 237 177
3 177 176 235
3 237 239 178
3 178 177 237
3 239 241 179
3 179 178 239
3 241 243 180
3 180 179 241
3 243 245 181
3 181 180 243
3 245 247 182
3 182 181 245
3 247 249 183
3 183 182 247
3 249 251 184
3 184 183 249
3 251 253 185
3 185 184 251
3 253 255 186
3 186 185 253
3 255 257 187
3 187 186 255
3 257 259 188
3 188 187 257
3 259 261 189
3 189 188 259
3 261 263 190
3 190 189 261
3 263 231 191
3 191 190 263
