ply
format ascii 1.0
comment Created by Blender 2.82 (sub 7) - www.blender.org, source file: 'pieces.blend'
element vertex 372
property float x
property float y
property float z
property float nx
property float ny
property float nz
property float s
property float t
property uchar red
property uchar green
property uchar blue
property uchar alpha
element face 646
property list uchar uint vertex_indices
end_header
0.011384 0.004143 0.000000 0.697562 0.253883 -0.670003 0.805556 0.000000 158 158 158 255
0.011384 0.004143 0.002007 0.927946 0.337748 0.157445 0.805556 0.092673 158 158 158 255
0.012114 -0.000000 0.002007 0.987518 0.000000 0.157445 0.750000 0.092673 158 158 158 255
0.012114 -0.000000 0.000000 0.742332 0.000000 -0.670003 0.750000 0.000000 158 158 158 255
0.009280 0.007787 0.000000 0.568651 0.477157 -0.670003 0.861111 0.000000 158 158 158 255
0.009280 0.007787 0.002007 0.756462 0.634754 0.157445 0.861111 0.092673 158 158 158 255
0.006057 0.010491 0.000000 0.371166 0.642872 -0.670003 0.916667 0.000000 158 158 158 255
0.006057 0.010491 0.002007 0.493759 0.855220 0.157445 0.916667 0.092673 158 158 158 255
0.002104 0.011930 0.000000 0.128880 0.731040 -0.670003 0.972222 0.000000 158 158 158 255
0.002104 0.011930 0.002007 0.171453 0.972503 0.157445 0.972222 0.092673 158 158 158 255
-0.002104 0.011930 0.000000 -0.128880 0.731040 -0.670003 1.027778 0.000000 158 158 158 255
-0.002104 0.011930 0.002007 -0.171453 0.972503 0.157445 1.027778 0.092673 158 158 158 255
-0.006057 0.010491 0.000000 -0.371166 0.642872 -0.670003 0.083333 0.000000 158 158 158 255
-0.006057 0.010491 0.002007 -0.493759 0.855220 0.157445 0.083333 0.092673 158 158 158 255
-0.002104 0.011930 0.002007 -0.171453 0.972503 0.157445 0.027778 0.092673 158 158 158 255
-0.002104 0.011930 0.000000 -0.128880 0.731040 -0.670003 0.027778 0.000000 158 158 158 255
-0.009280 0.007787 0.000000 -0.568651 0.477157 -0.670003 0.138889 0.000000 158 158 158 255
-0.009280 0.007787 0.002007 -0.756462 0.634754 0.157445 0.138889 0.092673 158 158 158 255
-0.011384 0.004143 0.000000 -0.697562 0.253883 -0.670003 0.194444 0.000000 158 158 158 255
-0.011384 0.004143 0.002007 -0.927946 0.337748 0.157445 0.194444 0.092673 158 158 158 255
-0.012114 -0.000000 0.000000 -0.742332 0.000000 -0.670003 0.250000 0.000000 158 158 158 255
-0.012114 -0.000000 0.002007 -0.987518 0.000000 0.157445 0.250000 0.092673 158 158 158 255
-0.011384 -0.004143 0.000000 -0.697562 -0.253883 -0.670003 0.305556 0.000000 158 158 158 255
-0.011384 -0.004143 0.002007 -0.927946 -0.337748 0.157445 0.305556 0.092673 158 158 158 255
-0.009280 -0.007787 0.000000 -0.568651 -0.477157 -0.670003 0.361111 0.000000 158 158 158 255
-0.009280 -0.007787 0.002007 -0.756462 -0.634754 0.157445 0.361111 0.092673 158 158 158 255
-0.006057 -0.010491 0.000000 -0.371166 -0.642872 -0.670003 0.416667 0.000000 158 158 158 255
-0.006057 -0.010491 0.002007 -0.493759 -0.855220 0.157445 0.416667 0.092673 158 158 158 255
-0.002104 -0.011930 0.000000 -0.128880 -0.731040 -0.670003 0.472222 0.000000 158 158 158 255
-0.002104 -0.011930 0.002007 -0.171453 -0.972503 0.157445 0.472222 0.092673 158 158 158 255
0.002104 -0.011930 0.000000 0.128880 -0.731040 -0.670003 0.527778 0.000000 158 158 158 255
0.002104 -0.011930 0.002007 0.171453 -0.972503 0.157445 0.527778 0.092673 158 158 158 255
0.006057 -0.010491 0.000000 0.371136 -0.642872 -0.670003 0.583333 0.000000 158 158 158 255
0.006057 -0.010491 0.002007 0.493759 -0.855220 0.157445 0.583333 0.092673 158 158 158 255
0.009280 -0.007787 0.000000 0.568651 -0.477157 -0.670003 0.638889 0.000000 158 158 158 255
0.009280 -0.007787 0.002007 0.756462 -0.634754 0.157445 0.638889 0.092673 158 158 158 255
0.011384 -0.004143 0.000000 0.697562 -0.253883 -0.670003 0.694444 0.000000 158 158 158 255
0.011384 -0.004143 0.002007 0.927946 -0.337748 0.157445 0.694444 0.092673 158 158 158 255
0.010726 0.003904 0.005796 0.936521 0.340861 0.081729 0.805556 0.267673 158 158 158 255
0.011414 0.000000 0.005796 0.996643 0.000000 0.081729 0.750000 0.267673 158 158 158 255
0.011414 0.000000 0.002707 0.786584 0.000000 0.617450 0.750000 0.125000 158 158 158 255
0.010726 0.003904 0.002707 0.739158 0.269021 0.617450 0.805556 0.125000 158 158 158 255
0.008744 0.007337 0.005796 0.763451 0.640614 0.081729 0.861111 0.267673 158 158 158 255
0.008744 0.007337 0.002707 0.602557 0.505600 0.617450 0.861111 0.125000 158 158 158 255
0.005707 0.009885 0.005796 0.498306 0.863124 0.081729 0.916667 0.267673 158 158 158 255
0.005707 0.009885 0.002707 0.393292 0.681204 0.617450 0.916667 0.125000 158 158 158 255
0.001982 0.011241 0.005796 0.173040 0.981506 0.081729 0.972222 0.267673 158 158 158 255
0.001982 0.011241 0.002707 0.136570 0.774621 0.617450 0.972222 0.125000 158 158 158 255
-0.001982 0.011241 0.005796 -0.173040 0.981506 0.081729 1.027778 0.267673 158 158 158 255
-0.001982 0.011241 0.002707 -0.136570 0.774621 0.617450 1.027778 0.125000 158 158 158 255
-0.005707 0.009885 0.005796 -0.498306 0.863124 0.081729 0.083333 0.267673 158 158 158 255
-0.001982 0.011241 0.005796 -0.173040 0.981506 0.081729 0.027778 0.267673 158 158 158 255
-0.001982 0.011241 0.002707 -0.136570 0.774621 0.617450 0.027778 0.125000 158 158 158 255
-0.005707 0.009885 0.002707 -0.393292 0.681204 0.617450 0.083333 0.125000 158 158 158 255
-0.008744 0.007337 0.005796 -0.763451 0.640614 0.081729 0.138889 0.267673 158 158 158 255
-0.008744 0.007337 0.002707 -0.602557 0.505600 0.617450 0.138889 0.125000 158 158 158 255
-0.010726 0.003904 0.005796 -0.936521 0.340861 0.081729 0.194444 0.267673 158 158 158 255
-0.010726 0.003904 0.002707 -0.739158 0.269021 0.617450 0.194444 0.125000 158 158 158 255
-0.011414 0.000000 0.005796 -0.996643 0.000000 0.081729 0.250000 0.267673 158 158 158 255
-0.011414 0.000000 0.002707 -0.786584 0.000000 0.617450 0.250000 0.125000 158 158 158 255
-0.010726 -0.003904 0.005796 -0.936521 -0.340861 0.081729 0.305556 0.267673 158 158 158 255
-0.010726 -0.003904 0.002707 -0.739158 -0.269021 0.617450 0.305556 0.125000 158 158 158 255
-0.008744 -0.007337 0.005796 -0.763451 -0.640614 0.081729 0.361111 0.267673 158 158 158 255
-0.008744 -0.007337 0.002707 -0.602557 -0.505600 0.617450 0.361111 0.125000 158 158 158 255
-0.005707 -0.009885 0.005796 -0.498306 -0.863124 0.081729 0.416667 0.267673 158 158 158 255
-0.005707 -0.009885 0.002707 -0.393292 -0.681204 0.617450 0.416667 0.125000 158 158 158 255
-0.001982 -0.011241 0.005796 -0.173040 -0.981506 0.081729 0.472222 0.267673 158 158 158 255
-0.001982 -0.011241 0.002707 -0.136570 -0.774621 0.617450 0.472222 0.125000 158 158 158 255
0.001982 -0.011241 0.005796 0.173040 -0.981506 0.081729 0.527778 0.267673 158 158 158 255
0.001982 -0.011241 0.002707 0.136570 -0.774651 0.617450 0.527778 0.125000 158 158 158 255
0.005707 -0.009885 0.005796 0.498306 -0.863124 0.081729 0.583333 0.267673 158 158 158 255
0.005707 -0.009885 0.002707 0.393292 -0.681204 0.617450 0.583333 0.125000 158 158 158 255
0.008744 -0.007337 0.005796 0.763451 -0.640614 0.081729 0.638889 0.267673 158 158 158 255
0.008744 -0.007337 0.002707 0.602557 -0.505600 0.617450 0.638889 0.125000 158 158 158 255
0.010726 -0.003904 0.005796 0.936521 -0.340861 0.081729 0.694444 0.267673 158 158 158 255
0.010726 -0.003904 0.002707 0.739158 -0.269021 0.617450 0.694444 0.125000 158 158 158 255
0.010397 0.003784 0.010285 0.827815 0.301279 -0.473190 0.805556 0.475000 158 158 158 255
0.011064 0.000000 0.010285 0.880917 0.000000 -0.473190 0.750000 0.475000 158 158 158 255
0.011064 0.000000 0.006496 0.868892 0.000000 0.494980 0.750000 0.300000 158 158 158 255
0.010397 0.003784 0.006496 0.816492 0.297159 0.494980 0.805556 0.300000 158 158 158 255
0.008476 0.007112 0.010285 0.674825 0.566240 -0.473190 0.861111 0.475000 158 158 158 255
0.008476 0.007112 0.006496 0.665609 0.558489 0.494980 0.861111 0.300000 158 158 158 255
0.005532 0.009582 0.010285 0.440443 0.762902 -0.473190 0.916667 0.475000 158 158 158 255
0.005532 0.009582 0.006496 0.434431 0.752464 0.494980 0.916667 0.300000 158 158 158 255
0.001921 0.010896 0.010285 0.152959 0.867550 -0.473190 0.972222 0.475000 158 158 158 255
0.001921 0.010896 0.006496 0.150884 0.855678 0.494980 0.972222 0.300000 158 158 158 255
-0.001921 0.010896 0.010285 -0.152959 0.867550 -0.473190 1.027778 0.475000 158 158 158 255
-0.001921 0.010896 0.006496 -0.150853 0.855678 0.494980 1.027778 0.300000 158 158 158 255
-0.005532 0.009582 0.010285 -0.440443 0.762902 -0.473190 0.083333 0.475000 158 158 158 255
-0.001921 0.010896 0.010285 -0.152959 0.867550 -0.473190 0.027778 0.475000 158 158 158 255
-0.001921 0.010896 0.006496 -0.150853 0.855678 0.494980 0.027778 0.300000 158 158 158 255
-0.005532 0.009582 0.006496 -0.434431 0.752464 0.494980 0.083333 0.300000 158 158 158 255
-0.008476 0.007112 0.010285 -0.674825 0.566240 -0.473190 0.138889 0.475000 158 158 158 255
-0.008476 0.007112 0.006496 -0.665609 0.558489 0.494980 0.138889 0.300000 158 158 158 255
-0.010397 0.003784 0.010285 -0.827815 0.301279 -0.473190 0.194444 0.475000 158 158 158 255
-0.010397 0.003784 0.006496 -0.816492 0.297159 0.494980 0.194444 0.300000 158 158 158 255
-0.011064 0.000000 0.010285 -0.880917 0.000000 -0.473220 0.250000 0.475000 158 158 158 255
-0.011064 0.000000 0.006496 -0.868892 0.000000 0.494980 0.250000 0.300000 158 158 158 255
-0.010397 -0.003784 0.010285 -0.827815 -0.301279 -0.473190 0.305556 0.475000 158 158 158 255
-0.010397 -0.003784 0.006496 -0.816492 -0.297159 0.494980 0.305556 0.300000 158 158 158 255
-0.008476 -0.007112 0.010285 -0.674825 -0.566240 -0.473190 0.361111 0.475000 158 158 158 255
-0.008476 -0.007112 0.006496 -0.665609 -0.558489 0.494980 0.361111 0.300000 158 158 158 255
-0.005532 -0.009582 0.010285 -0.440443 -0.762902 -0.473190 0.416667 0.475000 158 158 158 255
-0.005532 -0.009582 0.006496 -0.434431 -0.752464 0.494980 0.416667 0.300000 158 158 158 255
-0.001921 -0.010896 0.010285 -0.152959 -0.867550 -0.473190 0.472222 0.475000 158 158 158 255
-0.001921 -0.010896 0.006496 -0.150884 -0.855678 0.494980 0.472222 0.300000 158 158 158 255
0.001921 -0.010896 0.010285 0.152959 -0.867550 -0.473190 0.527778 0.475000 158 158 158 255
0.001921 -0.010896 0.006496 0.150853 -0.855678 0.494980 0.527778 0.300000 158 158 158 255
0.005532 -0.009582 0.010285 0.440443 -0.762902 -0.473190 0.583333 0.475000 158 158 158 255
0.005532 -0.009582 0.006496 0.434431 -0.752464 0.494980 0.583333 0.300000 158 158 158 255
0.008476 -0.007112 0.010285 0.674825 -0.566240 -0.473190 0.638889 0.475000 158 158 158 255
0.008476 -0.007112 0.006496 0.665609 -0.558489 0.494980 0.638889 0.300000 158 158 158 255
0.010397 -0.003784 0.010285 0.827815 -0.301279 -0.473190 0.694444 0.475000 158 158 158 255
0.010397 -0.003784 0.006496 0.816492 -0.297159 0.494980 0.694444 0.300000 158 158 158 255
0.009060 0.003298 0.021653 0.872494 0.317545 0.371288 0.805556 1.000000 158 158 158 255
0.009642 -0.000000 0.021653 0.928495 0.000000 0.371288 0.750000 1.000000 158 158 158 255
0.011306 -0.000000 0.010977 0.997528 0.000000 0.070223 0.750000 0.506941 158 158 158 255
0.010624 0.003867 0.010977 0.937346 0.341166 0.070223 0.805556 0.506941 158 158 158 255
0.007386 0.006198 0.021653 0.711264 0.596820 0.371288 0.861111 1.000000 158 158 158 255
0.008661 0.007268 0.010977 0.764122 0.641194 0.070223 0.861111 0.506941 158 158 158 255
0.004821 0.008350 0.021653 0.464248 0.804102 0.371288 0.916667 1.000000 158 158 158 255
0.005653 0.009792 0.010977 0.498764 0.863857 0.070223 0.916667 0.506941 158 158 158 255
0.001674 0.009495 0.021653 0.161229 0.914396 0.371288 0.972222 1.000000 158 158 158 255
0.001963 0.011135 0.010977 0.173193 0.982360 0.070223 0.972222 0.506941 158 158 158 255
-0.001674 0.009495 0.021653 -0.161229 0.914396 0.371288 1.027778 1.000000 158 158 158 255
-0.001963 0.011135 0.010977 -0.173193 0.982360 0.070223 1.027778 0.506941 158 158 158 255
-0.004821 0.008350 0.021653 -0.464248 0.804102 0.371288 0.083333 1.000000 158 158 158 255
-0.001674 0.009495 0.021653 -0.161229 0.914396 0.371288 0.027778 1.000000 158 158 158 255
-0.001963 0.011135 0.010977 -0.173193 0.982360 0.070223 0.027778 0.506941 158 158 158 255
-0.005653 0.009792 0.010977 -0.498764 0.863857 0.070223 0.083333 0.506941 158 158 158 255
-0.007386 0.006198 0.021653 -0.711264 0.596820 0.371288 0.138889 1.000000 158 158 158 255
-0.008661 0.007268 0.010977 -0.764122 0.641194 0.070223 0.138889 0.506941 158 158 158 255
-0.009060 0.003298 0.021653 -0.872494 0.317545 0.371288 0.194444 1.000000 158 158 158 255
-0.010624 0.003867 0.010977 -0.937346 0.341166 0.070223 0.194444 0.506941 158 158 158 255
-0.009642 0.000000 0.021653 -0.928495 0.000000 0.371288 0.250000 1.000000 158 158 158 255
-0.011306 0.000000 0.010977 -0.997528 0.000000 0.070223 0.250000 0.506941 158 158 158 255
-0.009060 -0.003298 0.021653 -0.872494 -0.317545 0.371288 0.305556 1.000000 158 158 158 255
-0.010624 -0.003867 0.010977 -0.937346 -0.341166 0.070223 0.305556 0.506941 158 158 158 255
-0.007386 -0.006198 0.021653 -0.711264 -0.596820 0.371288 0.361111 1.000000 158 158 158 255
-0.008661 -0.007268 0.010977 -0.764122 -0.641194 0.070223 0.361111 0.506941 158 158 158 255
-0.004821 -0.008350 0.021653 -0.464248 -0.804102 0.371288 0.416667 1.000000 158 158 158 255
-0.005653 -0.009792 0.010977 -0.498764 -0.863857 0.070223 0.416667 0.506941 158 158 158 255
-0.001674 -0.009495 0.021653 -0.161229 -0.914396 0.371288 0.472222 1.000000 158 158 158 255
-0.001963 -0.011135 0.010977 -0.173193 -0.982360 0.070223 0.472222 0.506941 158 158 158 255
0.001674 -0.009495 0.021653 0.161229 -0.914396 0.371288 0.527778 1.000000 158 158 158 255
0.001963 -0.011135 0.010977 0.173193 -0.982360 0.070223 0.527778 0.506941 158 158 158 255
0.004821 -0.008350 0.021653 0.464248 -0.804102 0.371288 0.583333 1.000000 158 158 158 255
0.005653 -0.009792 0.010977 0.498764 -0.863857 0.070223 0.583333 0.506941 158 158 158 255
0.007386 -0.006198 0.021653 0.711264 -0.596820 0.371288 0.638889 1.000000 158 158 158 255
0.008661 -0.007268 0.010977 0.764122 -0.641194 0.070223 0.638889 0.506941 158 158 158 255
0.009060 -0.003298 0.021653 0.872494 -0.317545 0.371288 0.694444 1.000000 158 158 158 255
0.010624 -0.003867 0.010977 0.937346 -0.341166 0.070223 0.694444 0.506941 158 158 158 255
0.005645 -0.004737 0.021770 -0.459395 0.385479 -0.800195 0.841105 0.906511 158 158 158 255
0.003684 -0.006382 0.021770 -0.299844 0.519364 -0.800195 0.959568 0.765332 158 158 158 255
0.001280 -0.007257 0.021770 -0.104129 0.590594 -0.800195 1.022602 0.592149 158 158 158 255
-0.001280 -0.007257 0.021770 0.104129 0.590594 -0.800195 1.022602 0.407851 158 158 158 255
-0.003684 -0.006382 0.021770 0.299844 0.519364 -0.800195 0.959568 0.234668 158 158 158 255
-0.005645 -0.004737 0.021770 0.459395 0.385479 -0.800195 0.841104 0.093488 158 158 158 255
-0.006924 -0.002520 0.021770 0.563524 0.205084 -0.800195 0.681498 0.001339 158 158 158 255
-0.007369 -0.000000 0.021770 0.599689 0.000000 -0.800195 0.500000 -0.030664 158 158 158 255
-0.006924 0.002520 0.021770 0.563524 -0.205084 -0.800195 0.318502 0.001339 158 158 158 255
-0.005645 0.004737 0.021770 0.459395 -0.385479 -0.800195 0.158896 0.093488 158 158 158 255
-0.003684 0.006382 0.021770 0.299844 -0.519364 -0.800195 0.040432 0.234668 158 158 158 255
-0.001280 0.007257 0.021770 0.104129 -0.590594 -0.800195 -0.022602 0.407851 158 158 158 255
0.001280 0.007257 0.021770 -0.104129 -0.590594 -0.800195 -0.022602 0.592148 158 158 158 255
0.003684 0.006382 0.021770 -0.299844 -0.519364 -0.800195 0.040432 0.765332 158 158 158 255
0.005645 0.004737 0.021770 -0.459395 -0.385479 -0.800195 0.158896 0.906512 158 158 158 255
0.006924 0.002520 0.021770 -0.563524 -0.205084 -0.800195 0.318502 0.998661 158 158 158 255
0.007369 -0.000000 0.021770 -0.599689 0.000000 -0.800195 0.500000 1.030664 158 158 158 255
0.006924 -0.002520 0.021770 -0.563524 0.205084 -0.800195 0.681498 0.998661 158 158 158 255
0.011327 0.000000 0.006321 0.851833 0.000000 0.523789 0.750000 0.283836 158 158 158 255
0.010644 0.003874 0.006321 0.800439 0.291330 0.523789 0.805556 0.283836 158 158 158 255
0.008677 0.007281 0.006321 0.652516 0.547533 0.523789 0.861111 0.283836 158 158 158 255
0.005663 0.009809 0.006321 0.425916 0.737693 0.523789 0.916667 0.283836 158 158 158 255
0.001967 0.011155 0.006321 0.147893 0.838893 0.523789 0.972222 0.283836 158 158 158 255
-0.001967 0.011155 0.006321 -0.147893 0.838893 0.523789 1.027778 0.283836 158 158 158 255
-0.001967 0.011155 0.006321 -0.147893 0.838893 0.523789 0.027778 0.283836 158 158 158 255
-0.005663 0.009809 0.006321 -0.425916 0.737693 0.523789 0.083333 0.283836 158 158 158 255
-0.008677 0.007281 0.006321 -0.652516 0.547533 0.523789 0.138889 0.283836 158 158 158 255
-0.010644 0.003874 0.006321 -0.800439 0.291330 0.523789 0.194444 0.283836 158 158 158 255
-0.011327 0.000000 0.006321 -0.851833 0.000000 0.523789 0.250000 0.283836 158 158 158 255
-0.010644 -0.003874 0.006321 -0.800439 -0.291330 0.523789 0.305556 0.283836 158 158 158 255
-0.008677 -0.007281 0.006321 -0.652516 -0.547533 0.523789 0.361111 0.283836 158 158 158 255
-0.005663 -0.009809 0.006321 -0.425916 -0.737693 0.523789 0.416667 0.283836 158 158 158 255
-0.001967 -0.011155 0.006321 -0.147893 -0.838893 0.523789 0.472222 0.283836 158 158 158 255
0.001967 -0.011155 0.006321 0.147893 -0.838893 0.523789 0.527778 0.283836 158 158 158 255
0.005663 -0.009809 0.006321 0.425916 -0.737693 0.523789 0.583333 0.283836 158 158 158 255
0.008677 -0.007281 0.006321 0.652516 -0.547533 0.523789 0.638889 0.283836 158 158 158 255
0.010644 -0.003874 0.006321 0.800439 -0.291330 0.523789 0.694444 0.283836 158 158 158 255
0.010618 0.003865 0.010458 0.844508 0.307352 -0.438490 0.805556 0.490971 158 158 158 255
0.011300 0.000000 0.010458 0.898709 0.000000 -0.438490 0.750000 0.490971 158 158 158 255
0.010618 -0.003865 0.010458 0.844508 -0.307352 -0.438490 0.694444 0.490971 158 158 158 255
0.008656 -0.007263 0.010458 0.688437 -0.577685 -0.438490 0.638889 0.490971 158 158 158 255
0.005650 -0.009786 0.010458 0.449355 -0.778314 -0.438490 0.583333 0.490971 158 158 158 255
0.001962 -0.011128 0.010458 0.156041 -0.885067 -0.438490 0.527778 0.490971 158 158 158 255
-0.001962 -0.011128 0.010458 -0.156041 -0.885067 -0.438490 0.472222 0.490971 158 158 158 255
-0.005650 -0.009786 0.010458 -0.449355 -0.778314 -0.438490 0.416667 0.490971 158 158 158 255
-0.008656 -0.007263 0.010458 -0.688437 -0.577685 -0.438490 0.361111 0.490971 158 158 158 255
-0.010618 -0.003865 0.010458 -0.844508 -0.307352 -0.438490 0.305556 0.490971 158 158 158 255
-0.011300 0.000000 0.010458 -0.898709 0.000000 -0.438490 0.250000 0.490971 158 158 158 255
-0.010618 0.003865 0.010458 -0.844508 0.307352 -0.438490 0.194444 0.490971 158 158 158 255
-0.008656 0.007263 0.010458 -0.688437 0.577685 -0.438490 0.138889 0.490971 158 158 158 255
-0.005650 0.009786 0.010458 -0.449355 0.778314 -0.438490 0.083333 0.490971 158 158 158 255
-0.001962 0.011128 0.010458 -0.156041 0.885067 -0.438490 0.027778 0.490971 158 158 158 255
-0.001962 0.011128 0.010458 -0.156041 0.885067 -0.438490 1.027778 0.490971 158 158 158 255
0.001962 0.011128 0.010458 0.156041 0.885067 -0.438490 0.972222 0.490971 158 158 158 255
0.005650 0.009786 0.010458 0.449355 0.778314 -0.438490 0.916667 0.490971 158 158 158 255
0.008656 0.007263 0.010458 0.688437 0.577685 -0.438490 0.861111 0.490971 158 158 158 255
0.009642 -0.000000 0.021653 0.928495 0.000000 0.371288 0.500000 1.000000 158 158 158 255
0.009060 0.003298 0.021653 0.872494 0.317545 0.371288 0.328990 0.969846 158 158 158 255
0.007470 0.002719 0.023999 0.604358 0.219947 0.765709 0.328990 0.969846 158 158 158 255
0.007949 -0.000000 0.023999 0.643147 0.000000 0.765709 0.500000 1.000000 158 158 158 255
0.007386 0.006198 0.021653 0.711264 0.596820 0.371288 0.178606 0.883022 158 158 158 255
0.006089 0.005110 0.023999 0.492660 0.413404 0.765709 0.178606 0.883022 158 158 158 255
0.004821 0.008350 0.021653 0.464248 0.804102 0.371288 0.066987 0.750000 158 158 158 255
0.003975 0.006884 0.023999 0.321574 0.556963 0.765709 0.066987 0.750000 159 159 159 255
0.001674 0.009495 0.021653 0.161229 0.914396 0.371288 0.007596 0.586824 158 158 158 255
0.001380 0.007828 0.023999 0.111667 0.633351 0.765709 0.007596 0.586824 158 158 158 255
-0.001674 0.009495 0.021653 -0.161229 0.914396 0.371288 0.007596 0.413176 158 158 158 255
-0.001380 0.007828 0.023999 -0.111667 0.633351 0.765709 0.007596 0.413176 158 158 158 255
-0.004821 0.008350 0.021653 -0.464248 0.804102 0.371288 0.066987 0.250000 158 158 158 255
-0.003975 0.006884 0.023999 -0.321574 0.556963 0.765709 0.066987 0.250000 158 158 158 255
-0.007386 0.006198 0.021653 -0.711264 0.596820 0.371288 0.178606 0.116978 158 158 158 255
-0.006089 0.005110 0.023999 -0.492660 0.413404 0.765709 0.178606 0.116978 158 158 158 255
-0.009060 0.003298 0.021653 -0.872494 0.317545 0.371288 0.328990 0.030154 158 158 158 255
-0.007470 0.002719 0.023999 -0.604358 0.219947 0.765709 0.328990 0.030154 158 158 158 255
-0.009642 0.000000 0.021653 -0.928495 0.000000 0.371288 0.500000 0.000000 158 158 158 255
-0.007949 0.000000 0.023999 -0.643147 0.000000 0.765709 0.500000 0.000000 158 158 158 255
-0.009060 -0.003298 0.021653 -0.872494 -0.317545 0.371288 0.671010 0.030154 158 158 158 255
-0.007470 -0.002719 0.023999 -0.604358 -0.219947 0.765709 0.671010 0.030154 158 158 158 255
-0.007386 -0.006198 0.021653 -0.711264 -0.596820 0.371288 0.821394 0.116978 158 158 158 255
-0.006089 -0.005110 0.023999 -0.492660 -0.413404 0.765709 0.821394 0.116978 158 158 158 255
-0.004821 -0.008350 0.021653 -0.464248 -0.804102 0.371288 0.933013 0.250000 158 158 158 255
-0.003975 -0.006884 0.023999 -0.321574 -0.556963 0.765709 0.933013 0.250000 158 158 158 255
-0.001674 -0.009495 0.021653 -0.161229 -0.914396 0.371288 0.992404 0.413176 158 158 158 255
-0.001380 -0.007828 0.023999 -0.111667 -0.633351 0.765709 0.992404 0.413176 158 158 158 255
0.001674 -0.009495 0.021653 0.161229 -0.914396 0.371288 0.992404 0.586824 158 158 158 255
0.001380 -0.007828 0.023999 0.111667 -0.633351 0.765709 0.992404 0.586824 158 158 158 255
0.004821 -0.008350 0.021653 0.464248 -0.804102 0.371288 0.933013 0.750000 158 158 158 255
0.003975 -0.006884 0.023999 0.321574 -0.556963 0.765709 0.933013 0.750000 158 158 158 255
0.007386 -0.006198 0.021653 0.711264 -0.596820 0.371288 0.821394 0.883022 158 158 158 255
0.006089 -0.005110 0.023999 0.492660 -0.413404 0.765709 0.821394 0.883022 158 158 158 255
0.009060 -0.003298 0.021653 0.872494 -0.317545 0.371288 0.671010 0.969846 158 158 158 255
0.007470 -0.002719 0.023999 0.604358 -0.219947 0.765709 0.671010 0.969846 158 158 158 255
0.004036 0.001469 0.025573 0.259011 0.094272 0.961241 0.457248 0.617462 158 158 158 255
0.004295 0.000000 0.025573 0.275643 0.000000 0.961241 0.500000 0.625000 158 158 158 255
0.003290 0.002761 0.025573 0.211158 0.177190 0.961241 0.419652 0.595756 158 158 158 255
0.002147 0.003719 0.025573 0.137822 0.238716 0.961241 0.391747 0.562500 158 158 158 255
0.000746 0.004229 0.025573 0.047853 0.271462 0.961241 0.376899 0.521706 158 158 158 255
-0.000746 0.004229 0.025573 -0.047853 0.271462 0.961241 0.376899 0.478294 158 158 158 255
-0.002147 0.003719 0.025573 -0.137822 0.238716 0.961241 0.391747 0.437500 158 158 158 255
-0.003290 0.002761 0.025573 -0.211158 0.177190 0.961241 0.419652 0.404244 158 158 158 255
-0.004036 0.001469 0.025573 -0.259011 0.094272 0.961241 0.457247 0.382538 158 158 158 255
-0.004295 0.000000 0.025573 -0.275643 0.000000 0.961241 0.500000 0.375000 158 158 158 255
-0.004036 -0.001469 0.025573 -0.259011 -0.094272 0.961241 0.542753 0.382538 158 158 158 255
-0.003290 -0.002761 0.025573 -0.211158 -0.177190 0.961241 0.580348 0.404244 158 158 158 255
-0.002147 -0.003719 0.025573 -0.137822 -0.238716 0.961241 0.608253 0.437500 158 158 158 255
-0.000746 -0.004229 0.025573 -0.047853 -0.271462 0.961241 0.623101 0.478294 158 158 158 255
0.000746 -0.004229 0.025573 0.047853 -0.271462 0.961241 0.623101 0.521706 158 158 158 255
0.002147 -0.003719 0.025573 0.137822 -0.238716 0.961241 0.608253 0.562500 158 158 158 255
0.003290 -0.002761 0.025573 0.211158 -0.177190 0.961241 0.580349 0.595755 158 158 158 255
0.004036 -0.001469 0.025573 0.259011 -0.094272 0.961241 0.542753 0.617461 158 158 158 255
0.011939 -0.000000 0.002532 0.730247 0.000000 0.683157 0.750000 0.108836 158 158 158 255
0.011219 0.004083 0.002532 0.686209 0.249733 0.683157 0.805556 0.108836 158 158 158 255
0.011219 -0.004083 0.002532 0.686209 -0.249733 0.683157 0.694444 0.108836 158 158 158 255
0.009146 -0.007674 0.002532 0.559404 -0.469375 0.683157 0.638889 0.108836 158 158 158 255
0.005970 -0.010340 0.002532 0.365123 -0.632405 0.683157 0.583333 0.108836 158 158 158 255
0.002073 -0.011758 0.002532 0.126804 -0.719138 0.683157 0.527778 0.108836 158 158 158 255
-0.002073 -0.011758 0.002532 -0.126804 -0.719138 0.683157 0.472222 0.108836 158 158 158 255
-0.005970 -0.010340 0.002532 -0.365123 -0.632405 0.683157 0.416667 0.108836 158 158 158 255
-0.009146 -0.007674 0.002532 -0.559404 -0.469375 0.683157 0.361111 0.108836 158 158 158 255
-0.011219 -0.004083 0.002532 -0.686209 -0.249733 0.683157 0.305556 0.108836 158 158 158 255
-0.011939 -0.000000 0.002532 -0.730247 0.000000 0.683157 0.250000 0.108836 158 158 158 255
-0.011219 0.004083 0.002532 -0.686209 0.249733 0.683157 0.194444 0.108836 158 158 158 255
-0.009146 0.007674 0.002532 -0.559404 0.469375 0.683157 0.138889 0.108836 158 158 158 255
-0.005970 0.010340 0.002532 -0.365123 0.632405 0.683157 0.083333 0.108836 158 158 158 255
-0.002073 0.011758 0.002532 -0.126804 0.719138 0.683157 0.027778 0.108836 158 158 158 255
0.002073 0.011758 0.002532 0.126804 0.719138 0.683157 0.972222 0.108836 158 158 158 255
-0.002073 0.011758 0.002532 -0.126804 0.719138 0.683157 1.027778 0.108836 158 158 158 255
0.005970 0.010340 0.002532 0.365123 0.632405 0.683157 0.916667 0.108836 158 158 158 255
0.009146 0.007674 0.002532 0.559404 0.469375 0.683157 0.861111 0.108836 158 158 158 255
-0.000000 -0.000000 0.026098 0.000000 0.000000 1.000000 0.500000 0.500000 158 158 158 255
0.011384 0.004143 0.000000 0.697562 0.253883 -0.670003 0.318502 0.998661 158 158 158 255
0.012114 -0.000000 0.000000 0.742332 0.000000 -0.670003 0.500000 1.030664 158 158 158 255
0.011403 -0.000000 0.000000 -0.663289 0.000000 -0.748344 0.500000 1.030664 158 158 158 255
0.010716 0.003900 0.000000 -0.623280 -0.226844 -0.748344 0.318502 0.998661 158 158 158 255
0.011384 -0.004143 0.000000 0.697562 -0.253883 -0.670003 0.681498 0.998661 158 158 158 255
0.010716 -0.003900 0.000000 -0.623280 0.226844 -0.748344 0.681498 0.998661 158 158 158 255
0.009280 -0.007787 0.000000 0.568651 -0.477157 -0.670003 0.841105 0.906511 158 158 158 255
0.008735 -0.007330 0.000000 -0.508103 0.426344 -0.748344 0.841105 0.906511 164 164 164 255
0.006057 -0.010491 0.000000 0.371136 -0.642872 -0.670003 0.959568 0.765332 158 158 158 255
0.005702 -0.009876 0.000000 -0.331645 0.574419 -0.748344 0.959568 0.765332 160 160 160 255
0.002104 -0.011930 0.000000 0.128880 -0.731040 -0.670003 1.022602 0.592149 158 158 158 255
0.001980 -0.011230 0.000000 -0.115177 0.653188 -0.748344 1.022602 0.592149 158 158 158 255
-0.002104 -0.011930 0.000000 -0.128880 -0.731040 -0.670003 1.022602 0.407851 158 158 158 255
-0.001980 -0.011230 0.000000 0.115177 0.653188 -0.748344 1.022602 0.407851 158 158 158 255
-0.006057 -0.010491 0.000000 -0.371166 -0.642872 -0.670003 0.959568 0.234668 158 158 158 255
-0.005702 -0.009876 0.000000 0.331645 0.574419 -0.748344 0.959568 0.234668 158 158 158 255
-0.009280 -0.007787 0.000000 -0.568651 -0.477157 -0.670003 0.841104 0.093488 158 158 158 255
-0.008735 -0.007330 0.000000 0.508103 0.426344 -0.748344 0.841104 0.093488 162 162 162 255
-0.011384 -0.004143 0.000000 -0.697562 -0.253883 -0.670003 0.681498 0.001339 158 158 158 255
-0.010716 -0.003900 0.000000 0.623280 0.226844 -0.748344 0.681498 0.001339 240 240 240 255
-0.012114 -0.000000 0.000000 -0.742332 0.000000 -0.670003 0.500000 -0.030664 158 158 158 255
-0.011403 -0.000000 0.000000 0.663289 0.000000 -0.748344 0.500000 -0.030664 237 237 237 255
-0.011384 0.004143 0.000000 -0.697562 0.253883 -0.670003 0.318502 0.001339 158 158 158 255
-0.010716 0.003900 0.000000 0.623280 -0.226844 -0.748344 0.318502 0.001339 164 164 164 255
-0.009280 0.007787 0.000000 -0.568651 0.477157 -0.670003 0.158896 0.093488 158 158 158 255
-0.008735 0.007330 0.000000 0.508103 -0.426344 -0.748344 0.158896 0.093488 253 253 253 255
-0.006057 0.010491 0.000000 -0.371166 0.642872 -0.670003 0.040432 0.234668 158 158 158 255
-0.005702 0.009876 0.000000 0.331645 -0.574419 -0.748344 0.040432 0.234668 158 158 158 255
-0.002104 0.011930 0.000000 -0.128880 0.731040 -0.670003 -0.022602 0.407851 158 158 158 255
-0.001980 0.011230 0.000000 0.115177 -0.653188 -0.748344 -0.022602 0.407851 158 158 158 255
0.002104 0.011930 0.000000 0.128880 0.731040 -0.670003 -0.022602 0.592148 158 158 158 255
0.001980 0.011230 0.000000 -0.115177 -0.653188 -0.748344 -0.022602 0.592148 158 158 158 255
0.006057 0.010491 0.000000 0.371166 0.642872 -0.670003 0.040432 0.765332 158 158 158 255
0.005702 0.009876 0.000000 -0.331645 -0.574419 -0.748344 0.040432 0.765332 158 158 158 255
0.009280 0.007787 0.000000 0.568651 0.477157 -0.670003 0.158896 0.906512 158 158 158 255
0.008735 0.007330 0.000000 -0.508103 -0.426344 -0.748344 0.158896 0.906512 158 158 158 255
0.011403 -0.000000 0.000700 -0.997681 0.000000 -0.067873 0.500000 1.030664 158 158 158 255
0.010716 0.003900 0.000700 -0.937498 -0.341227 -0.067873 0.318502 0.998661 158 158 158 255
0.010716 -0.003900 0.000700 -0.937498 0.341227 -0.067873 0.681498 0.998661 158 158 158 255
0.008735 -0.007330 0.000700 -0.764275 0.641285 -0.067873 0.841105 0.906511 160 160 160 255
0.005702 -0.009876 0.000700 -0.498825 0.864009 -0.067873 0.959568 0.765332 159 159 159 255
0.001980 -0.011230 0.000700 -0.173223 0.982513 -0.067873 1.022602 0.592149 158 158 158 255
-0.001980 -0.011230 0.000700 0.173223 0.982513 -0.067873 1.022602 0.407851 158 158 158 255
-0.005702 -0.009876 0.000700 0.498825 0.864009 -0.067873 0.959568 0.234668 158 158 158 255
-0.008735 -0.007330 0.000700 0.764275 0.641285 -0.067873 0.841104 0.093488 163 163 163 255
-0.010716 -0.003900 0.000700 0.937498 0.341227 -0.067873 0.681498 0.001339 255 255 255 255
-0.011403 -0.000000 0.000700 0.997681 0.000000 -0.067873 0.500000 -0.030664 255 255 255 255
-0.010716 0.003900 0.000700 0.937498 -0.341227 -0.067873 0.318502 0.001339 255 255 255 255
-0.008735 0.007330 0.000700 0.764275 -0.641285 -0.067873 0.158896 0.093488 255 255 255 255
-0.005702 0.009876 0.000700 0.498825 -0.864009 -0.067873 0.040432 0.234668 255 255 255 255
-0.001980 0.011230 0.000700 0.173223 -0.982513 -0.067873 -0.022602 0.407851 180 180 180 255
0.001980 0.011230 0.000700 -0.173223 -0.982513 -0.067873 -0.022602 0.592148 158 158 158 255
0.005702 0.009876 0.000700 -0.498825 -0.864009 -0.067873 0.040432 0.765332 158 158 158 255
0.008735 0.007330 0.000700 -0.764275 -0.641285 -0.067873 0.158896 0.906512 158 158 158 255
0.010680 -0.000000 0.005950 -0.992279 0.000000 -0.123905 0.500000 1.030664 158 158 158 255
0.010036 0.003653 0.005950 -0.932432 -0.339366 -0.123905 0.318502 0.998661 158 158 158 255
0.010036 -0.003653 0.005950 -0.932432 0.339366 -0.123905 0.681498 0.998661 158 158 158 255
0.008181 -0.006865 0.005950 -0.760125 0.637806 -0.123905 0.841105 0.906511 158 158 158 255
0.005340 -0.009249 0.005950 -0.496139 0.859340 -0.123905 0.959568 0.765332 158 158 158 255
0.001855 -0.010518 0.005950 -0.172308 0.977203 -0.123905 1.022602 0.592149 158 158 158 255
-0.001855 -0.010518 0.005950 0.172308 0.977203 -0.123905 1.022602 0.407851 158 158 158 255
-0.005340 -0.009249 0.005950 0.496139 0.859340 -0.123905 0.959568 0.234668 185 185 185 255
-0.008181 -0.006865 0.005950 0.760125 0.637806 -0.123905 0.841104 0.093488 237 237 237 255
-0.010036 -0.003653 0.005950 0.932432 0.339366 -0.123905 0.681498 0.001339 255 255 255 255
-0.010680 -0.000000 0.005950 0.992279 0.000000 -0.123905 0.500000 -0.030664 255 255 255 255
-0.010036 0.003653 0.005950 0.932432 -0.339366 -0.123905 0.318502 0.001339 255 255 255 255
-0.008181 0.006865 0.005950 0.760125 -0.637806 -0.123905 0.158896 0.093488 255 255 255 255
-0.005340 0.009249 0.005950 0.496139 -0.859340 -0.123905 0.040432 0.234668 255 255 255 255
-0.001855 0.010518 0.005950 0.172308 -0.977203 -0.123905 -0.022602 0.407851 228 228 228 255
0.001855 0.010518 0.005950 -0.172308 -0.977203 -0.123905 -0.022602 0.592148 193 193 193 255
0.005340 0.009249 0.005950 -0.496139 -0.859340 -0.123905 0.040432 0.765332 158 158 158 255
0.008181 0.006865 0.005950 -0.760125 -0.637806 -0.123905 0.158896 0.906512 158 158 158 255
0.009508 -0.000000 0.016450 -0.970580 0.000000 -0.240761 0.500000 1.030664 158 158 158 255
0.008934 0.003252 0.016450 -0.912046 -0.331950 -0.240761 0.318502 0.998661 158 158 158 255
0.008934 -0.003252 0.016450 -0.912046 0.331950 -0.240761 0.681498 0.998661 158 158 158 255
0.007283 -0.006111 0.016450 -0.743492 0.623859 -0.240761 0.841105 0.906511 158 158 158 255
0.004754 -0.008234 0.016450 -0.485275 0.840541 -0.240761 0.959568 0.765332 158 158 158 255
0.001651 -0.009363 0.016450 -0.168523 0.955809 -0.240761 1.022602 0.592149 158 158 158 255
-0.001651 -0.009363 0.016450 0.168523 0.955809 -0.240761 1.022602 0.407851 158 158 158 255
-0.004754 -0.008234 0.016450 0.485275 0.840541 -0.240761 0.959568 0.234668 159 159 159 255
-0.007283 -0.006111 0.016450 0.743492 0.623859 -0.240761 0.841104 0.093488 181 181 181 255
-0.008934 -0.003252 0.016450 0.912046 0.331950 -0.240761 0.681498 0.001339 209 209 209 255
-0.009508 -0.000000 0.016450 0.970580 0.000000 -0.240761 0.500000 -0.030664 226 226 226 255
-0.008934 0.003252 0.016450 0.912046 -0.331950 -0.240761 0.318502 0.001339 236 236 236 255
-0.007283 0.006111 0.016450 0.743492 -0.623859 -0.240761 0.158896 0.093488 239 239 239 255
-0.004754 0.008234 0.016450 0.485275 -0.840541 -0.240761 0.040432 0.234668 207 207 207 255
-0.001651 0.009363 0.016450 0.168523 -0.955809 -0.240761 -0.022602 0.407851 178 178 178 255
0.001651 0.009363 0.016450 -0.168523 -0.955809 -0.240761 -0.022602 0.592148 158 158 158 255
0.004754 0.008234 0.016450 -0.485275 -0.840541 -0.240761 0.040432 0.765332 158 158 158 255
0.007283 0.006111 0.016450 -0.743492 -0.623859 -0.240761 0.158896 0.906512 158 158 158 255
3 0 1 2
3 2 3 0
3 4 5 1
3 1 0 4
3 6 7 5
3 5 4 6
3 8 9 7
3 7 6 8
3 10 11 9
3 9 8 10
3 12 13 14
3 14 15 12
3 16 17 13
3 13 12 16
3 18 19 17
3 17 16 18
3 20 21 19
3 19 18 20
3 22 23 21
3 21 20 22
3 24 25 23
3 23 22 24
3 26 27 25
3 25 24 26
3 28 29 27
3 27 26 28
3 30 31 29
3 29 28 30
3 32 33 31
3 31 30 32
3 34 35 33
3 33 32 34
3 36 37 35
3 35 34 36
3 3 2 37
3 37 36 3
3 38 39 40
3 40 41 38
3 42 38 41
3 41 43 42
3 44 42 43
3 43 45 44
3 46 44 45
3 45 47 46
3 48 46 47
3 47 49 48
3 50 51 52
3 52 53 50
3 54 50 53
3 53 55 54
3 56 54 55
3 55 57 56
3 58 56 57
3 57 59 58
3 60 58 59
3 59 61 60
3 62 60 61
3 61 63 62
3 64 62 63
3 63 65 64
3 66 64 65
3 65 67 66
3 68 66 67
3 67 69 68
3 70 68 69
3 69 71 70
3 72 70 71
3 71 73 72
3 74 72 73
3 73 75 74
3 39 74 75
3 75 40 39
3 76 77 78
3 78 79 76
3 80 76 79
3 79 81 80
3 82 80 81
3 81 83 82
3 84 82 83
3 83 85 84
3 86 84 85
3 85 87 86
3 88 89 90
3 90 91 88
3 92 88 91
3 91 93 92
3 94 92 93
3 93 95 94
3 96 94 95
3 95 97 96
3 98 96 97
3 97 99 98
3 100 98 99
3 99 101 100
3 102 100 101
3 101 103 102
3 104 102 103
3 103 105 104
3 106 104 105
3 105 107 106
3 108 106 107
3 107 109 108
3 110 108 109
3 109 111 110
3 112 110 111
3 111 113 112
3 77 112 113
3 113 78 77
3 114 115 116
3 116 117 114
3 118 114 117
3 117 119 118
3 120 118 119
3 119 121 120
3 122 120 121
3 121 123 122
3 124 122 123
3 123 125 124
3 126 127 128
3 128 129 126
3 130 126 129
3 129 131 130
3 132 130 131
3 131 133 132
3 134 132 133
3 133 135 134
3 136 134 135
3 135 137 136
3 138 136 137
3 137 139 138
3 140 138 139
3 139 141 140
3 142 140 141
3 141 143 142
3 144 142 143
3 143 145 144
3 146 144 145
3 145 147 146
3 148 146 147
3 147 149 148
3 150 148 149
3 149 151 150
3 115 150 151
3 151 116 115
3 152 153 154
3 154 155 156
3 156 157 158
3 154 156 158
3 158 159 160
3 160 161 162
3 158 160 162
3 162 163 164
3 164 165 166
3 162 164 166
3 158 162 166
3 154 158 166
3 166 167 168
3 154 166 168
3 152 154 168
3 169 152 168
3 170 171 79
3 79 78 170
3 171 172 81
3 81 79 171
3 172 173 83
3 83 81 172
3 173 174 85
3 85 83 173
3 174 175 87
3 87 85 174
3 176 177 91
3 91 90 176
3 177 178 93
3 93 91 177
3 178 179 95
3 95 93 178
3 179 180 97
3 97 95 179
3 180 181 99
3 99 97 180
3 181 182 101
3 101 99 181
3 182 183 103
3 103 101 182
3 183 184 105
3 105 103 183
3 184 185 107
3 107 105 184
3 185 186 109
3 109 107 185
3 186 187 111
3 111 109 186
3 187 188 113
3 113 111 187
3 188 170 78
3 78 113 188
3 189 190 77
3 77 76 189
3 190 191 112
3 112 77 190
3 191 192 110
3 110 112 191
3 192 193 108
3 108 110 192
3 193 194 106
3 106 108 193
3 194 195 104
3 104 106 194
3 195 196 102
3 102 104 195
3 196 197 100
3 100 102 196
3 197 198 98
3 98 100 197
3 198 199 96
3 96 98 198
3 199 200 94
3 94 96 199
3 200 201 92
3 92 94 200
3 201 202 88
3 88 92 201
3 202 203 89
3 89 88 202
3 204 205 84
3 84 86 204
3 205 206 82
3 82 84 205
3 206 207 80
3 80 82 206
3 207 189 76
3 76 80 207
3 208 209 210
3 210 211 208
3 209 212 213
3 213 210 209
3 212 214 215
3 215 213 212
3 214 216 217
3 217 215 214
3 216 218 219
3 219 217 216
3 218 220 221
3 221 219 218
3 220 222 223
3 223 221 220
3 222 224 225
3 225 223 222
3 224 226 227
3 227 225 224
3 226 228 229
3 229 227 226
3 228 230 231
3 231 229 228
3 230 232 233
3 233 231 230
3 232 234 235
3 235 233 232
3 234 236 237
3 237 235 234
3 236 238 239
3 239 237 236
3 238 240 241
3 241 239 238
3 240 242 243
3 243 241 240
3 242 208 211
3 211 243 242
3 210 244 245
3 245 211 210
3 213 246 244
3 244 210 213
3 215 247 246
3 246 213 215
3 217 248 247
3 247 215 217
3 219 249 248
3 248 217 219
3 221 250 249
3 249 219 221
3 223 251 250
3 250 221 223
3 225 252 251
3 251 223 225
3 227 253 252
3 252 225 227
3 229 254 253
3 253 227 229
3 231 255 254
3 254 229 231
3 233 256 255
3 255 231 233
3 235 257 256
3 256 233 235
3 237 258 257
3 257 235 237
3 239 259 258
3 258 237 239
3 241 260 259
3 259 239 241
3 243 261 260
3 260 241 243
3 243 211 245
3 245 261 243
3 262 2 1
3 1 263 262
3 264 37 2
3 2 262 264
3 265 35 37
3 37 264 265
3 266 33 35
3 35 265 266
3 267 31 33
3 33 266 267
3 268 29 31
3 31 267 268
3 269 27 29
3 29 268 269
3 270 25 27
3 27 269 270
3 271 23 25
3 25 270 271
3 272 21 23
3 23 271 272
3 273 19 21
3 21 272 273
3 274 17 19
3 19 273 274
3 275 13 17
3 17 274 275
3 276 14 13
3 13 275 276
3 277 9 11
3 11 278 277
3 279 7 9
3 9 277 279
3 280 5 7
3 7 279 280
3 263 1 5
3 5 280 263
3 41 40 262
3 262 263 41
3 40 75 264
3 264 262 40
3 75 73 265
3 265 264 75
3 73 71 266
3 266 265 73
3 71 69 267
3 267 266 71
3 69 67 268
3 268 267 69
3 67 65 269
3 269 268 67
3 65 63 270
3 270 269 65
3 63 61 271
3 271 270 63
3 61 59 272
3 272 271 61
3 59 57 273
3 273 272 59
3 57 55 274
3 274 273 57
3 55 53 275
3 275 274 55
3 53 52 276
3 276 275 53
3 49 47 277
3 277 278 49
3 47 45 279
3 279 277 47
3 45 43 280
3 280 279 45
3 43 41 263
3 263 280 43
3 38 171 170
3 170 39 38
3 42 172 171
3 171 38 42
3 44 173 172
3 172 42 44
3 46 174 173
3 173 44 46
3 48 175 174
3 174 46 48
3 50 177 176
3 176 51 50
3 54 178 177
3 177 50 54
3 56 179 178
3 178 54 56
3 58 180 179
3 179 56 58
3 60 181 180
3 180 58 60
3 62 182 181
3 181 60 62
3 64 183 182
3 182 62 64
3 66 184 183
3 183 64 66
3 68 185 184
3 184 66 68
3 70 186 185
3 185 68 70
3 72 187 186
3 186 70 72
3 74 188 187
3 187 72 74
3 39 170 188
3 188 74 39
3 116 190 189
3 189 117 116
3 117 189 207
3 207 119 117
3 119 207 206
3 206 121 119
3 121 206 205
3 205 123 121
3 123 205 204
3 204 125 123
3 128 203 202
3 202 129 128
3 129 202 201
3 201 131 129
3 131 201 200
3 200 133 131
3 133 200 199
3 199 135 133
3 135 199 198
3 198 137 135
3 137 198 197
3 197 139 137
3 139 197 196
3 196 141 139
3 141 196 195
3 195 143 141
3 143 195 194
3 194 145 143
3 145 194 193
3 193 147 145
3 147 193 192
3 192 149 147
3 149 192 191
3 191 151 149
3 151 191 190
3 190 116 151
3 244 281 245
3 246 281 244
3 247 281 246
3 248 281 247
3 249 281 248
3 250 281 249
3 251 281 250
3 252 281 251
3 253 281 252
3 254 281 253
3 255 281 254
3 256 281 255
3 257 281 256
3 258 281 257
3 259 281 258
3 260 281 259
3 261 281 260
3 245 281 261
3 282 283 284
3 284 285 282
3 283 286 287
3 287 284 283
3 286 288 289
3 289 287 286
3 288 290 291
3 291 289 288
3 290 292 293
3 293 291 290
3 292 294 295
3 295 293 292
3 294 296 297
3 297 295 294
3 296 298 299
3 299 297 296
3 298 300 301
3 301 299 298
3 300 302 303
3 303 301 300
3 302 304 305
3 305 303 302
3 304 306 307
3 307 305 304
3 306 308 309
3 309 307 306
3 308 310 311
3 311 309 308
3 310 312 313
3 313 311 310
3 312 314 315
3 315 313 312
3 314 316 317
3 317 315 314
3 316 282 285
3 285 317 316
3 285 284 318
3 318 319 285
3 284 287 320
3 320 318 284
3 287 289 321
3 321 320 287
3 289 291 322
3 322 321 289
3 291 293 323
3 323 322 291
3 293 295 324
3 324 323 293
3 295 297 325
3 325 324 295
3 297 299 326
3 326 325 297
3 299 301 327
3 327 326 299
3 301 303 328
3 328 327 301
3 303 305 329
3 329 328 303
3 305 307 330
3 330 329 305
3 307 309 331
3 331 330 307
3 309 311 332
3 332 331 309
3 311 313 333
3 333 332 311
3 313 315 334
3 334 333 313
3 315 317 335
3 335 334 315
3 317 285 319
3 319 335 317
3 319 318 336
3 336 337 319
3 318 320 338
3 338 336 318
3 320 321 339
3 339 338 320
3 321 322 340
3 340 339 321
3 322 323 341
3 341 340 322
3 323 324 342
3 342 341 323
3 324 325 343
3 343 342 324
3 325 326 344
3 344 343 325
3 326 327 345
3 345 344 326
3 327 328 346
3 346 345 327
3 328 329 347
3 347 346 328
3 329 330 348
3 348 347 329
3 330 331 349
3 349 348 330
3 331 332 350
3 350 349 331
3 332 333 351
3 351 350 332
3 333 334 352
3 352 351 333
3 334 335 353
3 353 352 334
3 335 319 337
3 337 353 335
3 337 336 354
3 354 355 337
3 336 338 356
3 356 354 336
3 338 339 357
3 357 356 338
3 339 340 358
3 358 357 339
3 340 341 359
3 359 358 340
3 341 342 360
3 360 359 341
3 342 343 361
3 361 360 342
3 343 344 362
3 362 361 343
3 344 345 363
3 363 362 344
3 345 346 364
3 364 363 345
3 346 347 365
3 365 364 346
3 347 348 366
3 366 365 347
3 348 349 367
3 367 366 348
3 349 350 368
3 368 367 349
3 350 351 369
3 369 368 350
3 351 352 370
3 370 369 351
3 352 353 371
3 371 370 352
3 353 337 355
3 355 371 353
3 355 354 168
3 168 167 355
3 354 356 169
3 169 168 354
3 356 357 152
3 152 169 356
3 357 358 153
3 153 152 357
3 358 359 154
3 154 153 358
3 359 360 155
3 155 154 359
3 360 361 156
3 156 155 360
3 361 362 157
3 157 156 361
3 362 363 158
3 158 157 362
3 363 364 159
3 159 158 363
3 364 365 160
3 160 159 364
3 365 366 161
3 161 160 365
3 366 367 162
3 162 161 366
3 367 368 163
3 163 162 367
3 368 369 164
3 164 163 368
3 369 370 165
3 165 164 369
3 370 371 166
3 166 165 370
3 371 355 167
3 167 166 371
