ply
format ascii 1.0
comment Created by Blender 2.82 (sub 7) - www.blender.org, source file: 'cards.blend'
element vertex 180
property float x
property float y
property float z
property float nx
property float ny
property float nz
property float s
property float t
property uchar red
property uchar green
property uchar blue
property uchar alpha
element face 54
property list uchar uint vertex_indices
end_header
-0.019799 -0.090510 0.012463 0.000000 -0.816492 -0.577349 1.000000 0.000000 255 193 52 255
-0.090510 -0.019799 0.012463 -0.816492 0.000000 -0.577319 1.000000 1.000000 255 193 52 255
0.019799 0.090510 0.012463 0.000000 0.816492 -0.577349 0.000000 1.000000 255 193 52 255
0.090510 0.019799 0.012463 0.816492 0.000000 -0.577349 0.000000 0.000000 255 193 52 255
-0.019799 -0.090510 0.012500 0.000000 -0.816492 0.577349 0.000000 0.000000 255 193 52 255
0.090510 0.019799 0.012500 0.816492 0.000000 0.577349 1.000000 0.000000 255 193 52 255
0.019799 0.090510 0.012500 0.000000 0.816492 0.577349 1.000000 1.000000 255 193 52 255
-0.090510 -0.019799 0.012500 -0.816492 0.000000 0.577319 0.000000 1.000000 255 193 52 255
-0.019799 -0.090510 0.012463 0.000000 -0.816492 -0.577349 0.000000 0.000000 255 193 52 255
0.090510 0.019799 0.012463 0.816492 0.000000 -0.577349 1.000000 0.000000 255 193 52 255
0.090510 0.019799 0.012500 0.816492 0.000000 0.577349 1.000000 1.000000 255 193 52 255
-0.019799 -0.090510 0.012500 0.000000 -0.816492 0.577349 0.000000 1.000000 255 193 52 255
0.019799 0.090510 0.012463 0.000000 0.816492 -0.577349 1.000000 0.000000 255 193 52 255
0.090510 0.019799 0.012500 0.816492 0.000000 0.577349 0.000000 1.000000 255 193 52 255
0.019799 0.090510 0.012463 0.000000 0.816492 -0.577349 0.000000 0.000000 255 193 52 255
-0.090510 -0.019799 0.012463 -0.816492 0.000000 -0.577319 1.000000 0.000000 255 193 52 255
-0.090510 -0.019799 0.012500 -0.816492 0.000000 0.577319 1.000000 1.000000 255 193 52 255
0.019799 0.090510 0.012500 0.000000 0.816492 0.577349 0.000000 1.000000 255 193 52 255
-0.090510 -0.019799 0.012463 -0.816492 0.000000 -0.577319 0.000000 0.000000 255 193 52 255
-0.019799 -0.090510 0.012500 0.000000 -0.816492 0.577349 1.000000 1.000000 255 193 52 255
-0.019799 -0.090510 0.011741 0.000000 -0.816492 -0.577349 1.000000 0.000000 255 193 52 255
-0.090510 -0.019799 0.011741 -0.816492 0.000000 -0.577349 1.000000 1.000000 255 193 52 255
0.019799 0.090510 0.011741 0.000000 0.816492 -0.577319 0.000000 1.000000 255 193 52 255
0.090510 0.019799 0.011741 0.816492 0.000000 -0.577349 0.000000 0.000000 255 193 52 255
-0.019799 -0.090510 0.011778 0.000000 -0.816492 0.577349 0.000000 0.000000 255 193 52 255
0.090510 0.019799 0.011778 0.816492 0.000000 0.577349 1.000000 0.000000 255 193 52 255
0.019799 0.090510 0.011778 0.000000 0.816492 0.577319 1.000000 1.000000 255 193 52 255
-0.090510 -0.019799 0.011778 -0.816492 0.000000 0.577349 0.000000 1.000000 255 193 52 255
-0.019799 -0.090510 0.011741 0.000000 -0.816492 -0.577349 0.000000 0.000000 255 193 52 255
0.090510 0.019799 0.011741 0.816492 0.000000 -0.577349 1.000000 0.000000 255 193 52 255
0.090510 0.019799 0.011778 0.816492 0.000000 0.577349 1.000000 1.000000 255 193 52 255
-0.019799 -0.090510 0.011778 0.000000 -0.816492 0.577349 0.000000 1.000000 255 193 52 255
0.019799 0.090510 0.011741 0.000000 0.816492 -0.577319 1.000000 0.000000 255 193 52 255
0.090510 0.019799 0.011778 0.816492 0.000000 0.577349 0.000000 1.000000 255 193 52 255
0.019799 0.090510 0.011741 0.000000 0.816492 -0.577319 0.000000 0.000000 255 193 52 255
-0.090510 -0.019799 0.011741 -0.816492 0.000000 -0.577349 1.000000 0.000000 255 193 52 255
-0.090510 -0.019799 0.011778 -0.816492 0.000000 0.577349 1.000000 1.000000 255 193 52 255
0.019799 0.090510 0.011778 0.000000 0.816492 0.577319 0.000000 1.000000 255 193 52 255
-0.090510 -0.019799 0.011741 -0.816492 0.000000 -0.577349 0.000000 0.000000 255 193 52 255
-0.019799 -0.090510 0.011778 0.000000 -0.816492 0.577349 1.000000 1.000000 255 193 52 255
-0.024414 -0.089376 0.011019 -0.041841 -0.815394 -0.577349 1.000000 0.000000 255 193 52 255
-0.091406 -0.015132 0.011019 -0.815394 0.041841 -0.577349 1.000000 1.000000 255 193 54 255
0.024414 0.089376 0.011019 0.041841 0.815394 -0.577349 0.000000 1.000000 255 193 52 255
0.091406 0.015132 0.011019 0.815394 -0.041841 -0.577349 0.000000 0.000000 255 193 52 255
-0.024414 -0.089376 0.011056 -0.041841 -0.815394 0.577349 0.000000 0.000000 255 193 52 255
0.091406 0.015132 0.011056 0.815394 -0.041841 0.577349 1.000000 0.000000 255 193 52 255
0.024414 0.089376 0.011056 0.041841 0.815394 0.577349 1.000000 1.000000 255 193 52 255
-0.091406 -0.015132 0.011056 -0.815394 0.041841 0.577349 0.000000 1.000000 255 193 54 255
-0.024414 -0.089376 0.011019 -0.041841 -0.815394 -0.577349 0.000000 0.000000 255 193 52 255
0.091406 0.015132 0.011019 0.815394 -0.041841 -0.577349 1.000000 0.000000 255 193 52 255
0.091406 0.015132 0.011056 0.815394 -0.041841 0.577349 1.000000 1.000000 255 193 52 255
-0.024414 -0.089376 0.011056 -0.041841 -0.815394 0.577349 0.000000 1.000000 255 193 52 255
0.024414 0.089376 0.011019 0.041841 0.815394 -0.577349 1.000000 0.000000 255 193 52 255
0.091406 0.015132 0.011056 0.815394 -0.041841 0.577349 0.000000 1.000000 255 193 52 255
0.024414 0.089376 0.011019 0.041841 0.815394 -0.577349 0.000000 0.000000 255 193 52 255
-0.091406 -0.015132 0.011019 -0.815394 0.041841 -0.577349 1.000000 0.000000 255 193 54 255
-0.091406 -0.015132 0.011056 -0.815394 0.041841 0.577349 1.000000 1.000000 255 193 54 255
0.024414 0.089376 0.011056 0.041841 0.815394 0.577349 0.000000 1.000000 255 193 52 255
-0.091406 -0.015132 0.011019 -0.815394 0.041841 -0.577349 0.000000 0.000000 255 193 54 255
-0.024414 -0.089376 0.011056 -0.041841 -0.815394 0.577349 1.000000 1.000000 255 193 52 255
-0.019799 -0.090510 0.010298 0.000000 -0.816492 -0.577319 1.000000 0.000000 255 193 52 255
-0.090510 -0.019799 0.010298 -0.816492 0.000000 -0.577349 1.000000 1.000000 255 193 52 255
0.019799 0.090510 0.010298 0.000000 0.816492 -0.577349 0.000000 1.000000 255 193 52 255
0.090510 0.019799 0.010298 0.816492 0.000000 -0.577319 0.000000 0.000000 255 193 52 255
-0.019799 -0.090510 0.010334 0.000000 -0.816492 0.577319 0.000000 0.000000 255 193 52 255
0.090510 0.019799 0.010334 0.816492 0.000000 0.577319 1.000000 0.000000 255 193 52 255
0.019799 0.090510 0.010334 0.000000 0.816492 0.577349 1.000000 1.000000 255 193 52 255
-0.090510 -0.019799 0.010334 -0.816492 0.000000 0.577349 0.000000 1.000000 255 193 52 255
-0.019799 -0.090510 0.010298 0.000000 -0.816492 -0.577319 0.000000 0.000000 255 193 52 255
0.090510 0.019799 0.010298 0.816492 0.000000 -0.577319 1.000000 0.000000 255 193 52 255
0.090510 0.019799 0.010334 0.816492 0.000000 0.577319 1.000000 1.000000 255 193 52 255
-0.019799 -0.090510 0.010334 0.000000 -0.816492 0.577319 0.000000 1.000000 255 193 52 255
0.019799 0.090510 0.010298 0.000000 0.816492 -0.577349 1.000000 0.000000 255 193 52 255
0.090510 0.019799 0.010334 0.816492 0.000000 0.577319 0.000000 1.000000 255 193 52 255
0.019799 0.090510 0.010298 0.000000 0.816492 -0.577349 0.000000 0.000000 255 193 52 255
-0.090510 -0.019799 0.010298 -0.816492 0.000000 -0.577349 1.000000 0.000000 255 193 52 255
-0.090510 -0.019799 0.010334 -0.816492 0.000000 0.577349 1.000000 1.000000 255 193 52 255
0.019799 0.090510 0.010334 0.000000 0.816492 0.577349 0.000000 1.000000 255 193 52 255
-0.090510 -0.019799 0.010298 -0.816492 0.000000 -0.577349 0.000000 0.000000 255 193 52 255
-0.019799 -0.090510 0.010334 0.000000 -0.816492 0.577319 1.000000 1.000000 255 193 52 255
-0.019799 -0.090510 0.009576 0.000000 -0.816492 -0.577349 1.000000 0.000000 255 193 52 255
-0.090510 -0.019799 0.009576 -0.816492 0.000000 -0.577319 1.000000 1.000000 255 193 52 255
0.019799 0.090510 0.009576 0.000000 0.816492 -0.577349 0.000000 1.000000 255 193 52 255
0.090510 0.019799 0.009576 0.816492 0.000000 -0.577319 0.000000 0.000000 255 193 52 255
-0.019799 -0.090510 0.009612 0.000000 -0.816492 0.577349 0.000000 0.000000 255 193 52 255
0.090510 0.019799 0.009612 0.816492 0.000000 0.577319 1.000000 0.000000 255 193 52 255
0.019799 0.090510 0.009612 0.000000 0.816492 0.577349 1.000000 1.000000 255 193 52 255
-0.090510 -0.019799 0.009612 -0.816492 0.000000 0.577319 0.000000 1.000000 255 193 52 255
-0.019799 -0.090510 0.009576 0.000000 -0.816492 -0.577349 0.000000 0.000000 255 193 52 255
0.090510 0.019799 0.009576 0.816492 0.000000 -0.577319 1.000000 0.000000 255 193 52 255
0.090510 0.019799 0.009612 0.816492 0.000000 0.577319 1.000000 1.000000 255 193 52 255
-0.019799 -0.090510 0.009612 0.000000 -0.816492 0.577349 0.000000 1.000000 255 193 52 255
0.019799 0.090510 0.009576 0.000000 0.816492 -0.577349 1.000000 0.000000 255 193 52 255
0.090510 0.019799 0.009612 0.816492 0.000000 0.577319 0.000000 1.000000 255 193 52 255
0.019799 0.090510 0.009576 0.000000 0.816492 -0.577349 0.000000 0.000000 255 193 52 255
-0.090510 -0.019799 0.009576 -0.816492 0.000000 -0.577319 1.000000 0.000000 255 193 52 255
-0.090510 -0.019799 0.009612 -0.816492 0.000000 0.577319 1.000000 1.000000 255 193 52 255
0.019799 0.090510 0.009612 0.000000 0.816492 0.577349 0.000000 1.000000 255 193 52 255
-0.090510 -0.019799 0.009576 -0.816492 0.000000 -0.577319 0.000000 0.000000 255 193 52 255
-0.019799 -0.090510 0.009612 0.000000 -0.816492 0.577349 1.000000 1.000000 255 193 52 255
-0.027736 -0.088401 0.008854 -0.072298 -0.813288 -0.577349 1.000000 0.000000 255 193 54 255
-0.091907 -0.011707 0.008854 -0.813288 0.072298 -0.577349 1.000000 1.000000 255 195 71 255
0.027736 0.088401 0.008854 0.072268 0.813288 -0.577319 0.000000 1.000000 255 193 52 255
0.091907 0.011707 0.008854 0.813288 -0.072268 -0.577349 0.000000 0.000000 255 193 52 255
-0.027736 -0.088401 0.008890 -0.072298 -0.813288 0.577349 0.000000 0.000000 255 193 54 255
0.091907 0.011707 0.008890 0.813288 -0.072268 0.577349 1.000000 0.000000 255 193 52 255
0.027736 0.088401 0.008890 0.072268 0.813288 0.577319 1.000000 1.000000 255 193 52 255
-0.091907 -0.011707 0.008890 -0.813288 0.072298 0.577349 0.000000 1.000000 255 195 71 255
-0.027736 -0.088401 0.008854 -0.072298 -0.813288 -0.577349 0.000000 0.000000 255 193 54 255
0.091907 0.011707 0.008854 0.813288 -0.072268 -0.577349 1.000000 0.000000 255 193 52 255
0.091907 0.011707 0.008890 0.813288 -0.072268 0.577349 1.000000 1.000000 255 193 52 255
-0.027736 -0.088401 0.008890 -0.072298 -0.813288 0.577349 0.000000 1.000000 255 193 54 255
0.027736 0.088401 0.008854 0.072268 0.813288 -0.577319 1.000000 0.000000 255 193 52 255
0.091907 0.011707 0.008890 0.813288 -0.072268 0.577349 0.000000 1.000000 255 193 52 255
0.027736 0.088401 0.008854 0.072268 0.813288 -0.577319 0.000000 0.000000 255 193 52 255
-0.091907 -0.011707 0.008854 -0.813288 0.072298 -0.577349 1.000000 0.000000 255 195 71 255
-0.091907 -0.011707 0.008890 -0.813288 0.072298 0.577349 1.000000 1.000000 255 195 71 255
0.027736 0.088401 0.008890 0.072268 0.813288 0.577319 0.000000 1.000000 255 193 52 255
-0.091907 -0.011707 0.008854 -0.813288 0.072298 -0.577349 0.000000 0.000000 255 195 71 255
-0.027736 -0.088401 0.008890 -0.072298 -0.813288 0.577349 1.000000 1.000000 255 193 54 255
-0.019799 -0.090510 0.008132 0.000000 -0.816492 -0.577349 1.000000 0.000000 255 193 52 255
-0.090510 -0.019799 0.008132 -0.816492 0.000000 -0.577319 1.000000 1.000000 255 193 53 255
0.019799 0.090510 0.008132 0.000000 0.816492 -0.577349 0.000000 1.000000 255 193 53 255
0.090510 0.019799 0.008132 0.816492 0.000000 -0.577349 0.000000 0.000000 255 193 52 255
-0.019799 -0.090510 0.008169 0.000000 -0.816492 0.577349 0.000000 0.000000 255 193 52 255
0.090510 0.019799 0.008169 0.816492 0.000000 0.577349 1.000000 0.000000 255 193 52 255
0.019799 0.090510 0.008168 0.000000 0.816492 0.577349 1.000000 1.000000 255 193 53 255
-0.090510 -0.019799 0.008169 -0.816492 0.000000 0.577319 0.000000 1.000000 255 193 53 255
-0.019799 -0.090510 0.008132 0.000000 -0.816492 -0.577349 0.000000 0.000000 255 193 52 255
0.090510 0.019799 0.008132 0.816492 0.000000 -0.577349 1.000000 0.000000 255 193 52 255
0.090510 0.019799 0.008169 0.816492 0.000000 0.577349 1.000000 1.000000 255 193 52 255
-0.019799 -0.090510 0.008169 0.000000 -0.816492 0.577349 0.000000 1.000000 255 193 52 255
0.019799 0.090510 0.008132 0.000000 0.816492 -0.577349 1.000000 0.000000 255 193 53 255
0.090510 0.019799 0.008169 0.816492 0.000000 0.577349 0.000000 1.000000 255 193 52 255
0.019799 0.090510 0.008132 0.000000 0.816492 -0.577349 0.000000 0.000000 255 193 53 255
-0.090510 -0.019799 0.008132 -0.816492 0.000000 -0.577319 1.000000 0.000000 255 193 53 255
-0.090510 -0.019799 0.008169 -0.816492 0.000000 0.577319 1.000000 1.000000 255 193 53 255
0.019799 0.090510 0.008168 0.000000 0.816492 0.577349 0.000000 1.000000 255 193 53 255
-0.090510 -0.019799 0.008132 -0.816492 0.000000 -0.577319 0.000000 0.000000 255 193 53 255
-0.019799 -0.090510 0.008169 0.000000 -0.816492 0.577349 1.000000 1.000000 255 193 52 255
-0.018796 -0.090723 0.007410 0.009003 -0.816431 -0.577349 1.000000 0.000000 255 193 52 255
-0.090285 -0.020799 0.007410 -0.816431 -0.009033 -0.577319 1.000000 1.000000 255 193 53 255
0.018796 0.090723 0.007410 -0.009033 0.816431 -0.577349 0.000000 1.000000 255 193 53 255
0.090285 0.020799 0.007410 0.816431 0.009003 -0.577349 0.000000 0.000000 255 193 52 255
-0.018796 -0.090723 0.007447 0.009003 -0.816431 0.577349 0.000000 0.000000 255 193 52 255
0.090285 0.020799 0.007447 0.816431 0.009003 0.577349 1.000000 0.000000 255 193 52 255
0.018796 0.090723 0.007447 -0.009033 0.816431 0.577349 1.000000 1.000000 255 193 53 255
-0.090285 -0.020799 0.007447 -0.816431 -0.009033 0.577319 0.000000 1.000000 255 193 53 255
-0.018796 -0.090723 0.007410 0.009003 -0.816431 -0.577349 0.000000 0.000000 255 193 52 255
0.090285 0.020799 0.007410 0.816431 0.009003 -0.577349 1.000000 0.000000 255 193 52 255
0.090285 0.020799 0.007447 0.816431 0.009003 0.577349 1.000000 1.000000 255 193 52 255
-0.018796 -0.090723 0.007447 0.009003 -0.816431 0.577349 0.000000 1.000000 255 193 52 255
0.018796 0.090723 0.007410 -0.009033 0.816431 -0.577349 1.000000 0.000000 255 193 53 255
0.090285 0.020799 0.007447 0.816431 0.009003 0.577349 0.000000 1.000000 255 193 52 255
0.018796 0.090723 0.007410 -0.009033 0.816431 -0.577349 0.000000 0.000000 255 193 53 255
-0.090285 -0.020799 0.007410 -0.816431 -0.009033 -0.577319 1.000000 0.000000 255 193 53 255
-0.090285 -0.020799 0.007447 -0.816431 -0.009033 0.577319 1.000000 1.000000 255 193 53 255
0.018796 0.090723 0.007447 -0.009033 0.816431 0.577349 0.000000 1.000000 255 193 53 255
-0.090285 -0.020799 0.007410 -0.816431 -0.009033 -0.577319 0.000000 0.000000 255 193 53 255
-0.018796 -0.090723 0.007447 0.009003 -0.816431 0.577349 1.000000 1.000000 255 193 52 255
-0.019799 -0.090510 0.006688 0.000000 -0.816492 -0.577349 1.000000 0.000000 255 193 52 255
-0.090510 -0.019799 0.006688 -0.816492 0.000000 -0.577349 1.000000 1.000000 255 193 53 255
0.019799 0.090510 0.006688 0.000000 0.816492 -0.577349 0.000000 1.000000 255 193 54 255
0.090510 0.019799 0.006688 0.816492 0.000000 -0.577349 0.000000 0.000000 255 193 52 255
-0.019799 -0.090510 0.006725 0.000000 -0.816492 0.577349 0.000000 0.000000 255 193 52 255
0.090510 0.019799 0.006725 0.816492 0.000000 0.577349 1.000000 0.000000 255 193 52 255
0.019799 0.090510 0.006725 0.000000 0.816492 0.577349 1.000000 1.000000 255 193 54 255
-0.090510 -0.019799 0.006725 -0.816492 0.000000 0.577349 0.000000 1.000000 255 193 53 255
-0.019799 -0.090510 0.006688 0.000000 -0.816492 -0.577349 0.000000 0.000000 255 193 52 255
0.090510 0.019799 0.006688 0.816492 0.000000 -0.577349 1.000000 0.000000 255 193 52 255
0.090510 0.019799 0.006725 0.816492 0.000000 0.577349 1.000000 1.000000 255 193 52 255
-0.019799 -0.090510 0.006725 0.000000 -0.816492 0.577349 0.000000 1.000000 255 193 52 255
0.019799 0.090510 0.006688 0.000000 0.816492 -0.577349 1.000000 0.000000 255 193 54 255
0.090510 0.019799 0.006725 0.816492 0.000000 0.577349 0.000000 1.000000 255 193 52 255
0.019799 0.090510 0.006688 0.000000 0.816492 -0.577349 0.000000 0.000000 255 193 54 255
-0.090510 -0.019799 0.006688 -0.816492 0.000000 -0.577349 1.000000 0.000000 255 193 53 255
-0.090510 -0.019799 0.006725 -0.816492 0.000000 0.577349 1.000000 1.000000 255 193 53 255
0.019799 0.090510 0.006725 0.000000 0.816492 0.577349 0.000000 1.000000 255 193 54 255
-0.090510 -0.019799 0.006688 -0.816492 0.000000 -0.577349 0.000000 0.000000 255 193 53 255
-0.019799 -0.090510 0.006725 0.000000 -0.816492 0.577349 1.000000 1.000000 255 193 52 255
4 0 1 2 3
4 4 5 6 7
4 8 9 10 11
4 3 12 6 13
4 14 15 16 17
4 18 0 19 7
4 20 21 22 23
4 24 25 26 27
4 28 29 30 31
4 23 32 26 33
4 34 35 36 37
4 38 20 39 27
4 40 41 42 43
4 44 45 46 47
4 48 49 50 51
4 43 52 46 53
4 54 55 56 57
4 58 40 59 47
4 60 61 62 63
4 64 65 66 67
4 68 69 70 71
4 63 72 66 73
4 74 75 76 77
4 78 60 79 67
4 80 81 82 83
4 84 85 86 87
4 88 89 90 91
4 83 92 86 93
4 94 95 96 97
4 98 80 99 87
4 100 101 102 103
4 104 105 106 107
4 108 109 110 111
4 103 112 106 113
4 114 115 116 117
4 118 100 119 107
4 120 121 122 123
4 124 125 126 127
4 128 129 130 131
4 123 132 126 133
4 134 135 136 137
4 138 120 139 127
4 140 141 142 143
4 144 145 146 147
4 148 149 150 151
4 143 152 146 153
4 154 155 156 157
4 158 140 159 147
4 160 161 162 163
4 164 165 166 167
4 168 169 170 171
4 163 172 166 173
4 174 175 176 177
4 178 160 179 167
