ply
format ascii 1.0
comment Created by Blender 2.82 (sub 7) - www.blender.org, source file: 'TablePieces.blend'
element vertex 66
property float x
property float y
property float z
property float nx
property float ny
property float nz
property float s
property float t
property uchar red
property uchar green
property uchar blue
property uchar alpha
element face 17
property list uchar uint vertex_indices
end_header
0.004731 0.007817 0.013593 0.992761 -0.002696 -0.120075 1.810580 -0.794247 255 255 255 255
0.060879 0.015173 0.477651 0.992761 -0.002696 -0.120075 0.252400 -0.935796 235 235 236 255
0.060794 -0.015952 0.477651 0.992761 -0.002696 -0.120075 0.278576 0.063121 242 242 243 255
0.080000 -0.080000 0.502482 -0.000000 0.000000 1.000000 0.218750 -0.000000 73 74 93 255
0.080000 0.080000 0.502482 -0.000000 0.000000 1.000000 0.218750 1.000000 60 62 85 255
-0.080000 0.080000 0.502482 -0.000000 0.000000 1.000000 -0.343750 1.000000 60 62 84 255
-0.080000 -0.080000 0.502482 -0.000000 0.000000 1.000000 -0.343750 0.000000 94 96 110 255
0.080000 -0.080000 0.474682 1.000000 -0.000000 0.000000 -0.343750 0.449600 60 62 85 255
0.080000 0.080000 0.474682 1.000000 -0.000000 0.000000 0.218750 0.449600 163 163 169 255
0.080000 0.080000 0.502482 1.000000 -0.000000 0.000000 0.218750 1.449600 60 62 85 255
0.080000 -0.080000 0.502482 1.000000 -0.000000 0.000000 -0.343750 1.449600 73 74 93 255
-0.080000 -0.080000 0.474682 -0.000000 -1.000000 -0.000001 -0.343750 0.449600 86 88 104 255
0.080000 -0.080000 0.474682 -0.000000 -1.000000 -0.000001 0.218750 0.449600 60 62 85 255
0.080000 -0.080000 0.502482 -0.000000 -1.000000 -0.000001 0.218750 1.449600 73 74 93 255
-0.080000 -0.080000 0.502482 -0.000000 -1.000000 -0.000001 -0.343750 1.449600 94 96 110 255
-0.080000 0.080000 0.502482 -1.000000 0.000000 -0.000001 0.781250 1.449600 60 62 84 255
-0.080000 0.080000 0.474682 -1.000000 0.000000 -0.000001 0.781250 0.449600 176 176 182 255
-0.080000 -0.080000 0.474682 -1.000000 0.000000 -0.000001 0.218750 0.449600 86 88 104 255
-0.080000 -0.080000 0.502482 -1.000000 0.000000 -0.000001 0.218750 1.449600 94 96 110 255
-0.080000 0.080000 0.502482 0.000000 1.000000 0.000001 -0.343750 0.449600 60 62 84 255
0.080000 0.080000 0.502482 0.000000 1.000000 0.000001 0.218750 0.449600 60 62 85 255
0.080000 0.080000 0.474682 0.000000 1.000000 0.000001 0.218750 -0.550400 163 163 169 255
-0.080000 0.080000 0.474682 0.000000 1.000000 0.000001 -0.343750 -0.550400 176 176 182 255
-0.063929 0.015563 0.477651 0.993906 0.000000 0.110229 0.379748 0.978974 250 250 250 255
-0.057714 -0.015563 0.477651 0.993906 0.000000 0.110229 0.379825 -0.021026 246 246 246 255
-0.012462 -0.015563 0.013593 0.993906 0.000000 0.110229 1.932612 -0.020645 255 255 255 255
-0.006248 0.015563 0.013593 0.993906 0.000000 0.110229 1.932534 0.979355 255 255 255 255
-0.057714 -0.015563 0.477651 -0.993906 0.000000 -0.110229 0.187748 -0.914752 246 246 246 255
-0.063929 0.015563 0.477651 -0.993906 0.000000 -0.110229 0.208913 0.084540 250 250 250 255
-0.006248 0.015563 0.013593 -0.993906 0.000000 -0.110229 1.760600 -0.019330 255 255 255 255
-0.012462 -0.015563 0.013593 -0.993906 0.000000 -0.110229 1.739435 -1.018622 255 255 255 255
0.018650 -0.015633 0.013593 -0.964086 -0.244399 0.103955 2.033970 0.890509 255 255 255 255
0.060794 -0.015952 0.477651 -0.964086 -0.244399 0.103955 0.481740 0.964415 242 242 243 255
0.060879 0.015173 0.477651 -0.964086 -0.244399 0.103955 0.466680 -0.035227 235 235 236 255
0.004731 0.007817 0.013593 -0.964086 -0.244399 0.103955 2.018910 -0.109133 255 255 255 255
-0.036903 -0.036903 0.002085 -0.000000 0.000000 -1.000000 0.000000 0.000000 255 255 255 255
-0.036903 0.036903 0.002085 -0.000000 0.000000 -1.000000 0.000000 0.000000 218 218 220 255
0.036903 0.036903 0.002085 -0.000000 0.000000 -1.000000 0.000000 0.000000 255 255 255 255
0.036903 -0.036903 0.002085 -0.000000 0.000000 -1.000000 0.000000 0.000000 254 254 254 255
0.018650 -0.015633 0.013593 0.857329 0.508900 -0.077510 2.122787 0.587391 255 255 255 255
0.004731 0.007817 0.013593 0.857329 0.508900 -0.077510 2.644904 0.215329 255 255 255 255
0.060794 -0.015952 0.477651 0.857329 0.508900 -0.077510 0.733252 0.500233 242 242 243 255
-0.080000 0.080000 0.474682 0.000000 0.000000 -1.000000 -0.343750 0.000000 176 176 182 255
0.080000 0.080000 0.474682 0.000000 0.000000 -1.000000 0.218750 0.000000 163 163 169 255
0.080000 -0.080000 0.474682 0.000000 0.000000 -1.000000 0.218750 -1.000000 60 62 85 255
-0.080000 -0.080000 0.474682 0.000000 0.000000 -1.000000 -0.343750 -1.000000 86 88 104 255
0.040361 -0.040361 0.019799 -0.000000 0.000000 1.000000 0.000000 0.000000 61 63 85 255
0.040361 0.040361 0.019799 -0.000000 0.000000 1.000000 0.000000 0.000000 67 69 89 255
-0.040361 0.040361 0.019799 -0.000000 0.000000 1.000000 0.000000 0.000000 62 64 86 255
-0.040361 -0.040361 0.019799 -0.000000 0.000000 1.000000 0.000000 0.000000 58 60 83 255
0.036903 -0.036903 0.002085 0.981466 -0.000000 -0.191635 0.000000 0.000000 254 254 254 255
0.036903 0.036903 0.002085 0.981466 -0.000000 -0.191635 0.000000 0.000000 255 255 255 255
0.040361 0.040361 0.019799 0.981466 -0.000000 -0.191635 0.000000 0.000000 67 69 89 255
0.040361 -0.040361 0.019799 0.981466 -0.000000 -0.191635 0.000000 0.000000 61 63 85 255
-0.036903 -0.036903 0.002085 -0.000000 -0.981466 -0.191635 0.000000 0.000000 255 255 255 255
0.036903 -0.036903 0.002085 -0.000000 -0.981466 -0.191635 0.000000 0.000000 254 254 254 255
0.040361 -0.040361 0.019799 -0.000000 -0.981466 -0.191635 0.000000 0.000000 61 63 85 255
-0.040361 -0.040361 0.019799 -0.000000 -0.981466 -0.191635 0.000000 0.000000 58 60 83 255
-0.036903 0.036903 0.002085 -0.981466 0.000000 -0.191635 0.000000 0.000000 218 218 220 255
-0.036903 -0.036903 0.002085 -0.981466 0.000000 -0.191635 0.000000 0.000000 255 255 255 255
-0.040361 -0.040361 0.019799 -0.981466 0.000000 -0.191635 0.000000 0.000000 58 60 83 255
-0.040361 0.040361 0.019799 -0.981466 0.000000 -0.191635 0.000000 0.000000 62 64 86 255
-0.040361 0.040361 0.019799 0.000000 0.981466 -0.191634 0.000000 0.000000 62 64 86 255
0.040361 0.040361 0.019799 0.000000 0.981466 -0.191634 0.000000 0.000000 67 69 89 255
0.036903 0.036903 0.002085 0.000000 0.981466 -0.191634 0.000000 0.000000 255 255 255 255
-0.036903 0.036903 0.002085 0.000000 0.981466 -0.191634 0.000000 0.000000 218 218 220 255
3 0 1 2
4 3 4 5 6
4 7 8 9 10
4 11 12 13 14
4 15 16 17 18
4 19 20 21 22
4 23 24 25 26
4 27 28 29 30
4 31 32 33 34
4 35 36 37 38
3 39 40 41
4 42 43 44 45
4 46 47 48 49
4 50 51 52 53
4 54 55 56 57
4 58 59 60 61
4 62 63 64 65
